<?xml version="1.0" encoding="utf-8"?>
<!-- Generator: Adobe Illustrator 19.0.0, SVG Export Plug-In . SVG Version: 6.00 Build 0)  -->
<svg version="1.1" id="图层_1" xmlns="http://www.w3.org/2000/svg" xmlns:xlink="http://www.w3.org/1999/xlink" x="0px" y="0px"
	 viewBox="0 0 1000 841" style="enable-background:new 0 0 1000 841;" xml:space="preserve">
<style type="text/css">
	.st0{fill:#D9E2E8;}
	.st1{clip-path:url(#SVGID_2_);}
	.st2{fill:#D9E2E8;stroke:#030000;stroke-miterlimit:10;}
</style>
<path class="st0" d="M871.9,512.5l1.7-1.9l0,0l0,0v-0.2l-6-4.8c-3.1-2.2-5.8-2.9-7.7-2.6l-2.6,1v5.1c-0.5,1.7-1.2,3.6-2.9,5.1l-1,1
	l2.4,2.9h0.2l0.7,1.9l2.9,1.2c1.7-1.2,2.9-1.7,4.1-1.4l5.1,1l0.2-1.7C869.2,515.4,870.4,513.5,871.9,512.5z"/>
<path class="st0" d="M766.5,319l-0.7-0.5c-1.2,0-2.4,1.2-3.6,3.9l-0.7-0.5l-0.2,0.2l0.2,0.2l-2.2,2.2l-1,0.5l-2.6,1.4l-0.2,1.7
	c0.2,2.7-0.5,4.6-1.7,5.3l-1,2.9c-0.2,0.7-0.5,2.6-0.2,5.3l1.4,7.2c0.5,1,1.7,2.2,4.1,3.1l5.5,1.4c1.4,0,3.4-0.7,5.5-2.2l-1.4-2.6
	v-0.5v-0.2l0.5-2.2v-0.2l2.6-4.8h4.6l1.2-0.2c-0.5-1.4-1.9-4.1-4.6-7.5l-1.7-2.4c-1-1.9-1.9-4.1-2.2-7
	C767.7,321.4,766.9,320,766.5,319z"/>
<path class="st0" d="M744.6,309.9l-0.5,0.7l-0.7-0.2l-3.1-0.5l-0.2,1.4v0.7h-0.7l-5,1.9l-0.2,0.7c-0.7,1.7,0,3.1,1.7,5.1l0.5,0.5
	l-0.5,0.7c-1.4,2.4-3.6,4.8-6,6.5c-1,0.7-1.2,1.4-1.2,2.2l1.7,2.2l2.6,1l2.2,0.2c2.9,0,4.8,0.2,5.5,1.4l2.4,1.7
	c1.7,0.7,3.1,1.2,4.3,1.2c1,0,2.2-0.7,3.1-2.6l1.9-2.2l1.4-4.6l-1.2-5.3l1.9,0.5l3.1,0.2l1.4-1l0.5-1.2l-2.4-7l0.7-2.4
	c0.7-1.4,1.7-1.9,2.6-2.2h0.2l-0.5-1.7l-5.8,0.2V308l-5.3-3.6c-2.2-1.4-4.3-1.7-6.3-1.2l-0.7,0.5c-0.5,1,0,1.9,1.4,2.4
	C744.8,307,745.3,308.2,744.6,309.9z"/>
<path class="st0" d="M502,356.1h-3.8l-1.2,2.6l2.2,2.2v0.2v0.2l1,3.1l0.2,0.2v0.7l-0.5,0.2l-5.3,2.6l-0.2,0.2l0,0h-0.2h-0.2
	c-4.1-0.5-6.3-1.7-7-3.4l-1.4-2.9l-7.2-1.4l-1.9-9.1c-1.4-0.2-2.6-1-3.4-1.9l-0.2-0.5c-1.2-1.7-2.2-2.7-3.6-2.9
	c-1.9-0.7-3.6-2.2-5-4.3l-2.9-1.7h-0.2l0,0l0,0l-3.9-3.9l0,0l-1-3.4V333l7.7-10.6c0.2-0.7,0.5-1.2,0.2-1.4l-1.4-3.4l-4.1,1.7h-0.2
	v0.2H458l-10.6,0.7l-4.1,1l-1.4,1.4l-0.7,1.4c-1,1.2-2.4,1.9-4.6,1.4l0,0l-0.2-0.2l-3.6-2.7l-0.2-6c-1.9-1.4-3.1-2.9-3.6-4.1l-1-5.3
	l-2.4-2.9l-2.6-2.2l-1.2-0.7l4.3-5.5l1-3.1l-4.8-6h-0.2v-0.2l-2.2-4.8v-0.2l0,0l-0.5-2.4l-3.1-2.4v-0.2l0,0l0,0l-3.4-3.6l-4.3-0.7
	l-4.8,1.4l-0.7,1l-0.7,6.7v7.5l-0.7,0.2l-4.6,1.7l0,0v0.2l0,0l-4.3,0.2c-2.2,1.2-4.6,2.4-7.2,3.4l-0.5,0.2l0,0h-0.2l-8.2-1.9
	l-3.4,3.6c-0.7,1-2.4,1.9-4.6,2.4l-5.1,4.1l-2.7,4.1v0.2l-0.2,0.2c-1.4,2.2-2.6,3.8-3.6,4.6l-2.9,3.6v0.2l-0.2,0.2l-1.7,1.2
	c-1.2,0.5-2.4,0.7-3.4,0.7l-6-0.5l-1.4,2.2l-2.2,3.9l1,3.8l-0.5,9.4l1.7,2.9v0.2l0.7,2.2h3.4l5.8,1.2l7.5,0.5l3.4-0.5h0.5h0.2
	l6.5,2.4l0,0h0.2l3.4,2.6l7.2,2.6h0.2l4.8,2.9l11.8,10.8l5.3,2.4l2.2-1l2.2-4.1l-1.2-6.5c0-1.9,1.4-3.1,4.3-4.3l0.5-0.2l14.7,8.7
	l1.7-0.5l3.4-1.9h0.5l1.9,0.2l2.9-2.4l0.5-0.2l0.7,0.5l8.7,6l0.2,0.2l5.5,4.6c1.4,1,3.4,2.6,5,5.1l2.6,2.9l2.2-0.2l2.4-4.6l5.1,3.6
	h0.2h0.2l0,0l4.1,5.1l10.8,8.2l0,0l3.1,3.6l9.4-2.7l0.5,7l4.1,4.1l0,0v0.2l3.4,5.1v0.2v0.2v0.2l3.6,16.6l3.6,6.7l-4.8,12.3v0.7
	l-4.1,1v3.6l-0.2,0.2l-4.1,6.7h-0.5l-5.8,0.5l-5.8,4.8c0.7,0.7,1.7,1.2,3.4,1.9c2.4,0.7,2.6,2.7,1.4,6v0.2l-4.1,4.1h-0.2l-0.2,0.5
	h-0.2h-0.2l-11.6-1.7l-0.2,4.1l1.2,8.7l9.6,4.1v0.5l0,0l3.6-1.2l0.2-0.2l0.5-0.2l0.2,0.5h0.2l2.6,1.4h4.1l1.5-0.2l-1.5-4.6l0,0l0,0
	l-1-4.8v-0.2v-0.5l0.2-0.2v-0.2l1.4-1.7l0.5-0.5l0,0l0.2-0.2l2.6-3.6l0.2-0.2l4.3-3.4h0.2v-0.2h0.2l0,0l5.3-0.7v1.4
	c0,1.7,0.2,2.9,0.5,3.6l1,2.2l1.4,3.1l4.8,2.6l13.2,1.2h0.5h0.7v0.7v0.5l-0.5,4.3l3.9,4.1l2.9,1.2l0.5,0.2v0.3l0.2,0.5v1.7v2.4
	l-1.2,4.8l1.7,1.2c1.9-0.2,3.6-0.2,5.3,1l5.5,2.6l3.4-2.6l3.6-3.9l0.2-1.7l0.2-0.5l0.5-0.2l0.5-0.5v-0.5l-1.2-5.1l-0.2-2.6l-0.2-0.2
	v-0.2l0.2-0.2v-0.2l1.9-3.1l0.2-0.2l0,0l3.8-2.6h0.2h7.9l1.2-0.5l-0.2-4.1l-1.2-3.6l-2.6-4.3l-0.2-0.2v-0.2v-6v-0.2l0,0l1.4-3.6l0,0
	l0.2-0.2l0,0l6.5-9.4l0.2-0.2h0.2l0.5-0.2h1.4l2.4,0.2l5.5,3.1l3.6,1l0.5-1.7l-0.7-0.5v-0.7c0-1.4,0.7-2.6,2.2-3.8l4.3-3.1l0.2-0.2
	l0,0v-0.2c2.4-0.7,3.9-1.2,4.8-1.2l3.8-0.5h0.5l0,0l2.4,0.5l1.7-6v-4.1c0-2.7,0-4.3,0.7-4.8l1.7-3.1l-2.2-2.9l-2.9-1.9l-6-1.7
	c-1.2,0-3.4-1.2-7-4.3l-3.6-1.7h-0.2l-0.2-0.2l-4.3-5.3h-4.1l-0.2-0.2h-0.2l-3.6-1.9l-2.2,2.9l-0.5,11.3l0.7,4.3h1.7l0.2,0.2l3.4,1
	v0.2v0.2l1.7,4.1h0.2v0.2l0,0v0.2l-1,7.5v0.5v0.2l-0.2,0.2c-1.2,0.7-2.2,1.2-3.4,1.9l-0.5,0.2l-0.2-0.2h-0.2l-1.7-0.5l-3.9,1.4h-0.2
	l0.2,0.7l0.2,0.2l0.7,6.5c0,1-0.5,1.4-1.4,1.7h-2.9c-1.4-0.2-2.2-0.7-2.9-1.4l-2.9-2.2l-0.2-0.2h-0.2v-0.2l-1.7-4.1
	c-0.5-0.5-1.7-1.2-4.1-1.9h-0.2h-0.2l-3.4-2.4h-0.5v-0.5l0,0l-1-4.1l0.5-3.1h0.2v-0.2l0,0l1.4-1.7v-1.2l-1.4-4.3l-3.4-3.1v-0.5
	l-1-9.9l-2.4-2.4h-0.2l-0.2-0.2l0,0l-1.9-4.6l-8.7-1c-2.2-0.7-3.6-2.2-4.6-4.1h-3.8c-1.4-0.5-2.9-1.4-4.6-3.1l-0.5-0.5
	c-1-1-1.9-2.4-2.9-4.3l0,0l-0.2-0.2l-0.7-3.9l0,0v-0.2v-0.2l0,0l1.4-7.5v-0.2l1.4-3.1v-0.2v-0.2h0.2l9.1-3.8l3.6-4.3l0.7-3.6
	l-0.5-2.6c-1.4-3.1-2.4-5.1-2.4-6.3l-1.9,0.2l-3.4-0.2c-0.7,0.2-2.6,2.4-5.3,5.5l-4.1,3.9h-0.2l-0.2,0.2c-3.1,0.7-5.3,1.2-6.5,0.7
	L502,356.1z"/>
<path class="st0" d="M592.7,387.4l-1.4-0.2l-2.4,14.7l4.1,4.8l3.9,1.7l0,0h0.2l0.2,0.2l5,4.1l7,1.7h0.2l3.6,2.4h0.2l0,0v0.5l2.6,3.8
	l0.5,0.5l-0.2,0.5l-2.4,3.9c-0.5,0.5-0.5,1.7-0.5,3.6h0.2v4.6l-0.2,0.2l0,0l-2.2,7.2l-0.2,1.2h-0.5l-0.7-0.2l-3.1-0.7l-4.1,0.2
	l-3.6,1.2l-4.1,3.4l-1,1l5.3,2.6l-0.5,1c-0.2,1.2-1.4,2.4-3.4,3.1l-3.4,0.2l-5.5-2.2l0,0l0,0l-5.1-2.9h-2.2l-6,8.7L572,461v5.1
	l2.4,4.1v0.2l0,0l0,0l1.4,3.8v0.5l0.2,5.5v0.7l0.2,0.5l-3.8,0.7h-7.2l-3.4,2.2l-1.4,2.4l0.2,0.2l1.4,7.2h0.2v2.9l1.7,3.4l5.1,3.4
	l7.5-1.7l3.6-2.4l0.5-0.2h3.4l1.9,4.6c1.2,1.2,2.2,2.4,2.6,3.8l1.7-0.2h0.5h0.5l0.2-0.5l3.4-2.6l3.1,5.5l3.4,2.2h4.8l3.6-0.5h0.7
	l8.7,1.2h0.2v0.2l3.6,2.2l0,0l0,0v0.2l3.1,2.4v0.2l2.2,2.4l2.4,1l3.8-0.5v-5.1l-1.9-3.4h-0.2v-0.2l-1.4-6.3l3.4-3.4l0.2-0.2h0.2
	l2.9-0.5h3.1l1-1.2l-1.9-2.6l-7-4.6l-1.7-2.6l-0.2-0.2l-0.2-0.2l0.2-0.5l1.9-3.6l0.5,0.5l4.8,1.2l12.8-0.5l0.2,0.2h0.2l3.6,1.2
	l2.4-2.2l-1.2-7.5l-4.6-2.9c-3.9-2.2-5.1-7.5-4.3-16.1l-3.8-1.9l-0.5-0.2h-0.5v-0.5v-0.2l-0.7-6.3l5.3-24.6
	c-2.2-7.2-3.4-12-3.4-14.4l-0.5-7.2l0.5-7.9v-0.5l0.5-0.5l0,0l4.8-3.6v-3.8c0-1-0.5-2.4-1.7-4.3l-3.1-3.4h-0.5v-0.7l-0.5-5.8v-0.2
	l-0.2-0.2l0.5-0.2v-0.2l6.3-7.9v-3.4l-1.9-3.6v-0.2l-0.2-0.5l3.1-3.9v-0.2h0.2l3.4-2.6l-0.5-3.1h-1.7l-2.6-0.5l-1.4,5.8l-0.7-0.2
	l-6.2-2.4l-3.8-0.7l1.4,6l-5.3,1.7l-7.7,4.1l-2.4,3.1l0,0v0.2h-0.2l-4.1,3.6l-0.7,5.8v0.5l-2.2,8.2h0.2l-1,3.8v0.2l0,0l-0.2,0.2
	l-2.6,3.6h-0.2v0.2l-0.2,0.2h-0.2l-5.8,0.7l0,0v0.2l-0.2-0.2l0,0l-8.7-2.9l-0.2-0.2L592.7,387.4z"/>
<path class="st0" d="M717.9,578.9l0.2-0.2h-0.5v-0.5l-1.9-3.6l-0.2-0.2v-0.5l0.5-5.8c0-0.7-0.7-1.5-2.2-2.4h-1.4l-2.4,2.9h-0.2l0,0
	l-6,2.9l-1-4.1v-0.5l0.5-1.9l-0.5-2.4l-0.7-0.2l-1,1.9h-0.2v0.2l-7.5,6.5l-0.2,0.5h-0.2h-0.5h-0.5l-2.2-1l-0.2-0.2l-2.4-2.2
	l-3.8-1.5l0,0l-0.2-0.2l-2.4-1.7l-7.9-1.7l0,0h-0.2l-5.3-2.7v0.2l-4.1-1.9l-5.3-0.5l-1.9,0.2l1.7,8.9h-0.7l-5.3,0.5h-2.9h-0.2l0,0
	l-2.9-1.9l-4.8,2.2l-4.3,5.8l-3.9,10.3l1.2,11.3l1.7,6.5c0.2,0.7,0.2,1,0,1.2l-0.7,0.2c-1.2,0.7-1.7,2.4-1.4,4.8l2.4,9.9l-0.7,0.5
	c-4.3,2.4-6.5,4.3-6.7,5.3l-0.5,3.4l4.1-1.7l0.2-0.3h0.2c2.9,0,4.6,1,4.8,3.4l0.7,5.3l-0.2,0.7l-0.5,0.5c-0.7,0.7-1.2,1.4-1.2,2.4
	l-0.7,5.5c0.2,1.9,1,3.4,1.9,4.1l5.1,6l4.6-3.6l3.6-0.5h0.2l0.2,0.5l2.4,0.7c0.7,0,1.4-0.2,2.2-1l2.2-3.1l-0.5-1.9
	c0.5-0.7,1.2-1.2,2.2-1.7h5.8c1,0.5,1.7,0.2,1.7-0.2c0.7-1.7,1.4-2.4,2.2-2.9c0.7,0,1.9,0.2,2.6,1c1.7,1.4,2.9,2.6,2.9,4.3l-0.5,4.3
	l1,0.7c1.4,1.2,2.4,2.4,2.4,3.4l-1,4.3c-0.7,2.4-1.4,4.1-2.4,4.6v-0.2l-3.6,7.7l1.2,0.5l5.8,0.2l1.2,0.5l-0.5,1
	c-0.7,2.4-1,4.1-0.7,5.3c1.9,1.2,3.1,1.9,3.9,1.2l3.4-1.4l1.7-0.7h3.1l3.1-3.4v-4.1c-0.2-1.4,0-2.4,0.5-3.1c1-0.7,2.9-0.7,5.8,1
	l5.8,3.6c1.9,1.4,3.4,1.9,4.3,1.9v-0.2c0.5-1,0-2.9-1.2-5.3l-3.1-4.8v-0.5h0.2l0.2-0.5c3.1-4.3,6.5-5.8,10.3-4.3l8.9,4.1l3.6-2.4
	h0.2v-0.2v-0.2l-0.5-0.5l0.2-0.2l0.2-0.5c2.9-4.8,3.9-8.4,2.9-10.3c-0.7-1.7-1.9-2.4-2.9-2.4h-0.7l-0.5-2.4h0.5
	c1.7-0.7,2.7-1.4,2.9-2.4l-0.7-1.2l-3.9-3.6l0,0v-0.2l-1.9-5.3c-0.7-4.1-1.2-7.7-0.7-11.1V615l-2.4,2.2l-2.2,2.4l-0.7-10.1l0,0V609
	h0.2c5.3-7.7,8.9-12.3,10.1-13.5l-2.4-7.2c-0.7-3.6-1.2-5.8-1.2-6.7l-4.3-1.9L717.9,578.9z"/>
<path class="st0" d="M634.1,489.6l-0.2,1l1.2,1.5l6.3,4.3l0,0v0.2h0.2l3.9,4.3l-0.5,0.5l-2.4,2.9l-0.2,0.2l-0.2,0.5H638l-2.4,0.2
	l-1.7,1.7l0.7,2.2v0.2l0.2,2.4l2.2,3.1v0.2v6.7l1.9,0.7l3.4,1h0.2l0,0l0.2,0.2l0.2,0.2l3.1,4.3v0.2l0,0l1.7,4.3v0.2l0,0v2.9
	c-0.2,1.7-0.7,3.1-1.2,4.1c-1.2,1.7-3.4,3.1-6.7,4.6l-8.2,4.8h-0.2l-14.9,1l-1,3.6l2.7,4.8v0.2v0.2l0.7,6.3l8.2,9.6h0.2l0,0v0.2
	l3.4,5.5l0.2-0.7v-0.2l2.6-7.5l0,0l0.2-0.2l0,0l4.8-6.3l0.2-0.2l6-2.9h0.5l3.9,2.4l5.1-0.5l-1.7-8.4l1-0.2l4.6-0.5l4.8,0.2h0.5v0.2
	l9.6,4.3l8.2,1.7h0.2l0,0h0.2l2.6,1.9l3.8,1.4v0.3l0,0l0,0l0,0l2.4,2.2l1.4,0.5l2.6-2.4v-0.2l4.1-3.1l2.2-4.1l3.8,2.2v0.2v0.2l1,3.1
	v0.7l-0.5,1.9l0.2,0.5l2.4-1.2l3.4-3.4h3.1v0.2h0.2l2.2,1.4c1.4,1.4,1.9,2.7,1.4,3.8l-0.2,5.3l1.4,2.6l0.5,0.2
	c5.8-6.3,9.6-9.4,12-9.4h6.5l1.4-3.1l5-2.4h0.2l6.3-0.5l6.5-3.4v-0.2h4.1l-0.7-1.9l0.2-0.5l1-1l-8.9-19v-0.5l-0.2-0.2l3.9-5.3
	l-1.2-1.2l-6.5-1.2h-0.7l0,0v-0.5l-4.1-4.3l0.2-1l-0.2,0.2l-0.2,0.2l-3.6-2.4c-1.7,2.2-3.4,3.6-5.3,4.1c-1.7,0.7-4.3-1.2-7.9-5.5
	l-1.9-2.4c-0.2-0.5-1.9,0-4.6,1c-4.1,1.4-6.7,1.7-7.9,1c-1.2-1.2-1.7-3.6-1.2-6.7c0.2-2.6,0-4.1-0.5-4.8l-31.3-1.7
	c-2.9-1.2-5.3-2.4-6.5-3.6l-4.8-1.2c-1.9-0.7-5.5-3.9-10.3-9.9l-3.1,2.7l-4.8-1.5l-13,0.2l0,0l0,0L634.1,489.6z"/>
<path class="st0" d="M674.3,447.3h-0.2l-18.3,7.5l-5.5,5.3c-1,8.2,0,13,2.9,14.4l5.3,3.4h0.2v0.2l1.4,8.9c4.6,6,7.7,9.1,9.4,9.9
	l5.3,1.2l0.7,0.2v0.2c0.7,1,2.4,1.9,5.5,2.9l14.4,0.7c10.6,0,16.6,0.7,17.8,1.9c1.2,1,1.4,3.4,1.2,7c-0.2,2.4,0,3.8,0.2,4.1l5.3-1.2
	c4.1-1.4,6.5-1.4,7.7-0.2l1.9,2.4c2.9,3.6,4.8,5.1,5.3,4.8c1.4-0.5,3.1-1.9,4.8-4.3l0.5-0.7l4.3,2.7l2.6-2.2
	c0.7-3.4,2.4-5.1,5.3-5.3l1.2-0.5l-0.5-1l-0.5-0.5l0.2-0.2l0.2-6c-1.9-2.9-4.3-3.9-7-3.4c-2.6,0.7-4.6,0.7-5.3-0.2
	c-0.5-0.7-0.5-1.2-0.5-2.2c-1.7-2.9-3.4-5.3-5.5-7.5c-2.9-2.4-3.6-4.6-2.9-6.7l0.5-0.7l6.7,1.2l-0.5-4.1c-0.2-2.4,0-4.1,1.2-5.3
	c0.5-1,1.7-1.5,2.9-1.7l2.9-1v-1.2c-2.2-4.6-2.9-7.9-1.9-9.4l1.4-1.2c0.7-0.2,3.1,0.2,6.5,1.4l0,0l0.2,0.2v0.5
	c2.6,3.1,4.1,5.1,4.8,5.5l4.6-7.5c-4.1-5.1-6.3-8.7-7-10.1l-3.6,2.4l-0.5-0.5l-9.6-2.4h-0.2V449c-4.1-1.9-6.5-4.1-6.7-6.3l-5.8-2.6
	v-5.5l10.6-6.3c-0.5-2.9-1.2-5.8-2.4-8.2l-1.7-3.4l-7.2,0.7c-3.4,1.4-6.5,2.2-9.6,2.2l-7.5-1.7v-2.7L709,415l-2.2-0.7l-0.5-1.4l0,0
	v-0.2l0,0l0,0l-0.2-0.7v-0.2V411l-0.5,0.2l-0.5,6.3l-0.2,2.2c-0.5,1.2-1,1.9-0.5,2.4c1.2,1.7,1,3.6-0.3,5.3l1,4.1l-0.2,0.2l-0.5,0.2
	l-2.9,2.6v5.5l-0.7,0.2c-5.3,2.4-8.9,3.6-11.1,3.6l-10.6-0.7l-4.6,4.1H674.3z"/>
<path class="st0" d="M842,62.4l-1.7-5.3l-4.3-7.5l-3.6-1.9l-3.6,1.9l-2.2,4.3l-0.2,0.5h-0.5h-0.2l-6.7,1.2c-0.7,0.5-1.4,0.7-1.9,1.4
	l-1.4,1.7l-3.6,2.9l-1,0.5l-3.1,0.5c-1.5-0.2-3.6-1.4-6.5-3.6l-0.2-0.2c-4.8-4.8-7.2-8.2-7.2-10.1v-6.3v-0.2V42l0.7-1.2l-7-2.4
	l-0.2,2.4c0,0.7-0.7,1.7-1.9,2.4l-2.4,1l-1-0.2v-0.2l-3.6-0.7l0.7,2.6l-6.3-4.1h-0.2l-0.2-0.2l0,0c-1-2.6-1.4-5.3-1.4-8.2
	c0-2.4,0.2-3.9,1.2-4.8l1.4-2.6l-0.5-2.2l-6.3,1c-3.1,0.2-5.3,2.2-6.5,5.8v0.2l0,0l-3.6,5.5l3.6-0.2h0.2l0.2-0.2l0.2,0.5l2.9,1.2
	h0.5l0.5,0.2v0.7l0.5,5l1.4,4.8v0.2v0.2v0.2L759,64.4c-1.4,2.2-2.2,7.9-2.6,16.6v0.7l-3.1,6l2.2,2.4v0.5c0.2,3.6,0,5.8-1,6.3
	l-0.7,0.2c-1.7,1-7.2,6.7-16.1,17.6l-0.7,0.7l-0.5-0.2l-0.7-0.5c-3.1-2.2-6-4.1-7.7-6c-1.4-1-5.1-1.7-11.1-1.7l-0.2,11.1l-0.2,0.2
	l-4.3,20.9c-1,2.7-1.2,7.5-1.2,14.7l1.7,2.2l1.4-2.9h0.2l0.2-0.5l5.5-2.9l15.4,2.4l1.7-1.9l2.2-3.9l0.5-0.2l0,0l0.2-0.2l6-1.2
	l7.9-0.5c2.4,0.5,5.3,3.6,8.9,8.4c9.6,4.8,14.9,9.1,16.1,13c0.7,1.9,0.7,3.4,0,5.1c-0.7,1.7-2.4,2.6-4.8,2.9h-0.2
	c-11.8-0.5-18.5-0.5-20.9,0.2l-5.8,3.9c-7.2,5.3-12,7.9-14.7,7.9l-4.8,0.7l-2.9,12c-0.7,3.6-1.9,6-4.1,7.7c-1.9,1.9-4.8,3.1-8.7,3.8
	c-4.6,0.7-8.4,2.4-12,4.6l-4.1,8.7l-0.2,0.2h-0.2h-0.2l-11.1,4.6h-0.7l-5.5-1.2c-4.3-0.7-7.7-1.9-9.9-3.4c-2.9-1.4-6-1.7-9.4-0.7
	c-2.9,4.1-4.3,9.1-4.1,14.7c0.2,2.9,1,4.8,1.7,5.3l1.7-0.2l1.9-1.2l0.5,7.7c0,2.6-1,4.6-2.9,6c-1.2,1-3.4,1.9-6.5,2.9l-1.9,0.5
	c-2.4,1-7.5,7.5-14.9,19.2v0.2h-0.2l-7.2,4.3c1.2,0,1.9,0.5,1.7,1.4c-0.2,1-1,1.2-2.9,1.4l-20.5-0.5c-22.9-0.7-40.7,5.5-53.4,18.5
	l-0.2,0.2l-0.5,0.2h-0.2l-8.4,1l-0.5,0.2h-0.5l-2.4-5.8l-8.7,2.2c-4.6,0.2-10.6-1-17.3-4.3c-6.3-2.6-11.8-6.3-17.3-10.6
	c-3.6-2.9-8.2-4.8-13.5-5.8l-7.7-0.7l-8.7,1.2c-6.3,1-12.5,1-18.3,0.5c-7-0.5-15.4-2.4-25.5-5.5l-0.7,1.4h0.2h0.2l0.2,0.2v0.2
	l0.2,2.4l2.2,4.6l5.1,6.3l0.2,0.7l-1,4.6v0.2h-0.2l-2.9,3.9l3.1,3.1c1.2,1.2,1.9,2.2,1.9,3.1l0.7,4.6l3.6,3.6v0.5l0.5,3.1v2.4
	l2.2,1.7l1.4-0.5l0.2-0.7c0.7-1.9,1.9-2.9,3.6-3.1l1.9-0.7l12.8-1.2l5.1-1.9l0.5-0.2l0.7-0.5l2.7,5.8h0.2l0,0c0.2,1.4,0,2.6-0.7,3.8
	l-7,9.9l0.5,1.7l3.1,3.1l3.1,1.9h0.2c1.4,1.9,2.6,3.1,4.1,3.6c1.7,0.5,3.4,1.9,4.8,3.8l0.2,0.7l2.4,1l0.7,0.2h0.2l0.7,2.6l0,0
	l0.2,2.6l1,3.9l6,1h0.5l0.2,0.2v0.2l0.2,0.5l1.7,3.4l4.8,1.7l3.4-1.7l-0.5-1.9l-3.1-2.9l0.5-0.5v-0.5l2.6-5.1h5.8l0.2,0.2l8.2,2.9
	l4.6-0.7l3.6-3.4c4.1-5.1,6.7-7.2,8.4-6l1.9-0.2c2.2,0,3.4,0.2,4.1,0.5c0.2,0.5,0.5,1,0.5,1.4c0,1,1,2.9,2.4,5.5v0.2v0.2l0.7,3.4
	v0.7l-1,3.8l0,0v0.2L536,362l-4.1,4.8l-0.2,0.2l0,0l-8.7,3.9l-1.2,2.4l-1.2,7l0.7,3.4l2.2,3.6l1,0.7l2.9,1.9h10.1l8.4-1.2l1.2-1.2
	c1.2-1.4,2.4-1.9,3.1-1.9l5.8,1l0.5-1c-0.5-1.7-0.5-3.1,0.5-4.6l2.4-4.1v-7.7V369l4.3-12.5l0.2-0.2V356h0.2v-0.2l7.5-6l0.5-0.5
	l6.5,2.9l0,0c3.4,2.4,5,4.3,5,5.5l-0.5,5.3l-2.2,3.4l-1.7,4.8v5.3l1.7,2.4l2.2-0.2l0.5-0.2l3.6,0.2c1.9,1,3.1,2.6,4.1,5.1l2.2,0.7
	h0.2l0,0h0.2l8.2,3.8l3.6,1.2l5.1-0.7l2.2-2.9l2.9-11.8l0.2-6.5v-0.5l0.5-0.2l0.2-0.2l4.6-3.9l2.6-3.4l0.2-0.2l4.8-2.2l2.9-1.7
	l3.6-1.4l-1.9-7.2l8.2,1l0,0v0.2l0,0l4.3,1.7l0,0v-0.2l1.2-4.6V344l0.7,0.2h0.5l3.8,1h1.9l3.6-4.1h0.2l0.2-0.2h0.2l4.8-1l4.1-3.8
	l2.2-3.1v-3.9c0-1.4,0.7-2.4,2.2-3.1l0,0h0.5h0.2l4.6,0.5l1.9-1.2l0.7-3.4l4.8-1.4h0.2h0.2l0,0l6,0.7l4.8-1.2l2.9-2.9l1.9-3.8
	l-3.6-3.8v-0.2l0,0l-0.7-2.9l0,0l-1-4.3v-0.2l2.2-3.8c0-1.2,0.7-2.9,2.6-4.8l2.6-5.3v-0.2h0.2l2.4-3.8l3.6-7.2l3.4,4.8l0.2,0.2v0.2
	l1.2,4.8v0.2l0.7,4.8l3.4,1.4h0.2l0,0l0,0l1,0.5l0.2-0.2l2.9-5.1l1.7-4.8l0.7,0.2l0.7,0.2l7,2.4l3.4-2.6l0.2-0.2h0.5l3.4-0.2
	l2.4-4.1v-5.1l1.7-7.7l0.5,0.2h0.7l5.3,1.2l2.4-4.3h0.2h0.5l4.8-0.5h0.7v0.2l0.5,0.2l2.4,3.4v0.2l0.2,0.2v0.5l0.5,4.8l2.4,2.2
	l3.4-3.1l0.7,1c1.2,1.2,1.7,2.4,1.7,3.8v4.3l-1.7,4.3l1.2,1.9l2.4,2.6l10.1,1.4l0.2,0.2l0,0l0.5,0.2l0,0l0.7,0.7l2.9-4.1h0.2
	l2.4-2.4l-1-3.6l-2.6-15.4l7,3.4h0.3h0.2l3.1,3.9l1.9,1.9l2.9-1.9l10.1-11.1l0,0h0.2l3.6-2.7l4.1-5.8l0.2-0.5l5.5,1.4h2.6
	c0-2.2,0.5-3.6,0.7-4.6l4.1-4.8l1.2-0.7l4.8,1.7l5.8-0.7l3.9-4.1l1.9-3.6l-1.2-1.9l-3.4,1.7l-0.2-0.2l-0.2-0.2l-4.3-3.9l-0.2-0.2
	l1.7-6.5l0.5-4.8l-1.2-4.1l-3.4-1.2v-0.2l-0.2-0.2l-0.2-0.2l-2.9-5.8l-0.5-0.7l-4.1,4.8l-4.1,2.6l-1,0.5l-0.2-0.2l-0.3-0.5l-4.3-4.1
	v-0.2l-3.1-6.7v-0.2l-1.4-4.8v-0.2l0,0v-7.2l-0.5-4.3l-3.4-1.2h-0.2v-0.2l-7.7-6l0.5-0.7l3.6-3.9V177v-0.2h0.5l0,0l4.1-0.5h0.2
	c1.2,0,2.4,0.7,3.4,1.9l3.4,2.7l3.6-2.9l2.6-3.6v-3.1l-1-7.7l-0.7-3.1l-5.3-1v-3.1l-4.8-6l-0.2-0.2l-2.4-4.3l-0.5-0.5v-0.5l0,0
	l5.3-7v-0.2l0.2-0.2V137h0.5l2.2-0.2l2.7-2.2l3.1-9.6h0.2v-0.2l3.9-4.3v-0.2h0.2h0.2l4.3-1.2v0.5l2.9,2.4l1,0.2l1.7-7.5l-1.7-5.3
	l-0.2-0.2v-0.5l0.7-6v-0.5l2.9-3.1l1.9-3.4l0.2-2.9c0-1.4-0.7-3.9-2.2-7.5l0,0l0,0v-5.8v-0.2l1.2-5.1c-1-2.2-1.7-3.8-1.7-5.1
	L842,62.4z"/>
<path class="st0" d="M566,357.7l-4.3,12v7.9v0.2l-2.4,4.1l-0.5,2.9c0.5,1.7-0.2,3.1-1.9,4.1l-0.5,0.2h-0.2l-0.2-0.2l-6-0.7l-3.1,2.9
	l-9.1,1.4l0,0h-3.9l2.4,1.7l8.7,1h0.5h0.5l0.2,0.2v0.2l2.2,5.3l2.4,1.7c0.7,1,1.2,2.4,1.2,5.1l0.2,6.5l2.9,2.6h0.2v0.2h0.2l1.4,4.8
	v2.6l-1.7,2.4l-0.5,2.2l0.7,2.4l2.9,1.9c3.1,1.2,4.8,1.9,5.5,3.1l1.7,3.6c1.9,1,2.9,1.9,3.4,2.9l2.2,0.7h0.2l-1-5.3
	c-0.2-1.2-0.2-2.4,0.2-2.9c0.5-0.7,1-1.2,1.9-1.4l3.6-1.2l0,0l0.2-0.2h0.2l0.2,0.2l1.7,0.5l2.2-1.2v-0.5l0.7-6l-1.4-2.9l-1.9-1
	l-2.4-0.2h-0.5l-0.5-0.2l-1-6.3l0.2-12.3l0.5-0.5l3.6-5.1l5.3,2.9h3.1l2.4-15.6c-0.7-1.7-1.4-2.9-2.9-3.6l-1.4-0.2v0.2h-0.7
	l-3.8,0.7l-0.2-0.5l-0.2-0.2l-2.6-3.4v-0.2l-0.2-0.2v-6l1-3.4l1-1.4c0-1,0.2-1.9,1.2-3.1l1-1.2l0.2-4.1l-3.6-3.4l-4.8-2.4L566,357.7
	z"/>
<path class="st0" d="M401.7,271.1l0.2-0.2h0.2v-0.2l-7.7-21.9l-4.8-3.9v-0.5l-1.2-8.9l-10.1-1.4h-0.2h-0.5v-0.2l-0.2-0.5V233
	c-1.2-3.4-4.3-7-9.1-10.8c-2.6-2.2-5.3-3.6-7.5-4.1c-1.7-1-3.4-1.7-4.6-2.6c-3.1-2.2-14-3.8-33-4.3h-0.7l0,0l-2.2-3.4
	c-1-2.2-1.7-4.1-1.9-6.3c0-2.6,3.1-11.3,9.9-25.5l-3.4-10.6l0,0l-3.6-16.8c-0.5-2.4-4.6-4.6-11.8-6.7c-1.4-0.5-2.9-1-4.3-1.9
	c-2.6-1.2-4.6-3.4-5.5-6c-1.4-3.1-3.9-5.8-7.2-7.2l-0.2-0.2l-0.2-0.2l-2.9-14.9l-11.5,1.2l-1.2,3.1c-1.4,5.1-2.9,7.5-4.6,7.5
	l-7.5,2.4c-4.6,1.7-7.5,3.6-8.9,5.8c-0.7,1-1.4,3.9-1.9,7.7c-0.7,4.3-1.4,7.5-2.4,9.4c-1.4,3.1-3.6,5.5-7,6.7
	c-6.2,2.4-16.8-1.7-31.5-12l-19.7,25.3l2.4,10.3h0.2l0.2,0.5l-0.5,0.2v0.2c-1,1.4-2.4,2.4-4.1,2.6c-1.9,0.5-3.9-0.2-6-1.7
	c-1.9-1.4-7.5-2.6-16.4-3.1l-4.1-0.2l0,0l-6-0.5l-6.5,1.2l2.9,4.1c2.4,3.1,3.4,5.1,3.1,6.3l-2.7,15.6l1.2,8.4h0.2v0.2l-0.2,0.2l0,0
	l-4.8,15.6c-0.2,1.4-0.7,2.2-1.2,1.9h-0.5v-0.2l-0.7-1.4c-1-1.9-1.4-2.6-2.2-2.4c-0.5,0.2-1.2,1.2-1.4,3.4c-1,4.3-3.6,7.9-7.7,11.8
	l-4.3,3.4l-2.2,1.2l0,0h-0.2l-15.6,0.2l-6,5.8h-0.2h-0.5h-0.2l-16.6-2.4c-2.6,2.9-5.3,3.8-7.9,3.4c-2.4-0.7-6.5,0.2-12.3,2.4
	l-6.7,7.9l-0.2,0.5l-10.6,0.2v-8.9h-6.7l-1.2,3.9l-5.1,1.2H41l0,0l-0.2-0.2h-0.2c-3.1-1.9-7-3.4-10.8-3.8c-2.2-0.2-4.8,1.2-8.7,4.6
	c-4.1,3.4-7,6.5-8.4,9.4c0.7,0.5,1.2,1.4,1.2,2.9c0.5,1.7,0.7,3.1,0.7,5.1c-0.2,1.9-1,3.1-1.9,4.1c-1.2,0.7-1.9,2.9-2.6,6.7l3.8,2.7
	l5.3-5.5l6.7,7.5v0.5l1.4,13.2v0.2H27l-3.9,18.3h-1c-5.5,0-9.1,0.2-10.6,1.2c0.2,1.2,2.6,3.1,6.7,5.8l3.4-0.5h0.7l0.2,0.2l7.9,7.7
	c3.1,2.6,2.9,7.2-1.2,14l1.2,7.5l3.1,0.7H46l-6.3,5.8l3.6,1.9l0,0l4.8,2.6l13,5.5l0.2,0.2h0.5l1.2,19.7c0.2,3.8,3.1,6.7,8.9,8.7
	l1-0.5h0.2h0.2l13.5,1.9h1V408l0.2-0.5c1.4-2.6,2.4-4.6,2.4-5V402c-0.2-2.2,0.7-4.1,2.6-5.5c1.9-1.4,3.1-2.9,3.8-4.6l0.2-0.2
	c0.7-1.9,3.1-2.4,7.2-1.2h0.2l0,0l4.6,2.6l15.2,2.9l9.4-0.7l6.7-2.9c1.2-1.7,2.2-2.4,2.9-2.9c1.2-0.2,2.9,0.2,4.8,1.9l1,0.5
	c1,0.7,1.7,2.2,2.6,4.8l4.8,3.6h3.6h0.2h0.5h0.2l5.1,2.2l9.4-0.7l5.3-1.7l13.7,1.2l6-1.7l7-2.9c1.4-1,3.1-1.7,5.5-2.4h13.2l4.8-1.7
	c1.9-1.2,3.6-1.9,5.1-1.9h7.7l3.6,2.6l10.3,2.2c1.4,0,2.9,1.2,5.3,3.4l4.3,2.9l0.5,0.5l9.9,0.2l0,0h0.2l4.6,2.4l6,1.2h0.2l5.1,0.7
	l1.4-2.9l-2.2-4.8l-1-4.8V394h-0.2l0.7-0.7l3.4-4.6v-0.2l0,0h0.2v-0.2l3.4-2.4l0,0l-0.7-1.4l-1.4-4.8c0-0.7-0.7-1.2-2.2-2.2l0,0
	l-3.6-3.8l-4.6-3.9l-0.2-0.5l-0.5-0.2l0.2-0.2v-0.5l0.7-4.6v-3.4l-2.2-5.8l5.5-1.2l2.6-2.6h6.7l6.7-1h0.2l4.6,0.5l5.3-1.9l6-0.7
	l3.8-1.7h0.2l10.4-1.9l1.7-1.7l-0.5-1.9L337,337v-0.2l-0.2-0.2v-0.2l0.5-3.6l0.2-0.2v-5.1l-1-4.3l0,0v-0.2l2.4-4.8
	c1-2.2,2.2-3.4,3.6-3.4l6.3,0.5c1,0,2.2-0.5,3.4-1.4l9.4-12.7v-0.2l0.2-0.2l5.1-4.1l0.5-0.5c1.9-0.5,3.1-1.2,3.9-1.7l1.2-1.2
	c1.7-2.2,3.1-3.1,4.1-3.1l8.2,1.7l7-3.4l0,0h0.2l0,0h0.2l4.1-0.5l3.4-1.4v-5.5l1-7v-0.2l0,0v-0.2l1.2-1.9V271.1z"/>
<path class="st0" d="M409.9,353.4l-2.2,1.7c0,1,0.5,3.1,1.2,6.3v0.2l0.2,0.2h-0.2l-2.6,6l-3.6,1.4l-0.7,0.2h-0.2l-6.3-2.9h-0.2v-0.2
	l-11.8-10.8l-4.6-2.6l-7.2-2.6V350l0,0h-0.2l0,0l-3.4-2.4l-6-1.9l-3.4,0.2h-0.2l-7.7-0.5h-0.2l-5.5-1.2h-3.4l-2.6,1.9
	c-1.4,0.7-3.4,1-5.8,1.4l-5.1,1l-4.3,1.4l-0.2,0.2v0.2v-0.2l-5.3,0.5l-5.5,2.2l0,0h-0.7l-4.6-0.5l-7,1h-5.8l-2.4,2.4H292l-2.9,0.7
	l1.2,2.9v4.6l-0.7,4.1l4.1,3.4h0.2l0,0l0,0l3.4,3.9c2.2,1.7,3.1,2.9,3.1,4.3l1.2,3.6l1.7,3.6c-0.2,0-0.2,0.2-0.5,0.2l-4.6,3.4
	l-3.1,4.1l0.7,3.6l2.2,5.1l0.2,0.5l0,0v0.3l-0.5,1.9c-0.5,1.2-1,2.2-1.7,2.6c-1.4,1.2-3.8,1.2-7.7,0l-6-1.2h-0.2l0,0h-0.2l-4.3-2.2
	l-7-0.2l0.2,0.2l-0.7,12c-0.2,1.7-1.4,2.4-3.1,2.6c-0.7,0.2-1.2,1.2-1,3.1v0.2h-0.2l-0.5,3.1c1.7,1.4,2.9,2.7,3.4,3.6l1.2,5.8v2.2
	c-0.2,1.2-0.5,2.2-1,3.1l-1.7,4.8l-3.1,6v1.2l0.5,2.9l3.1,4.1c1,1.2,1.4,1.9,1.7,2.6l2.9,4.1l4.3,4.8c1.7,1.7,2.9,2.4,3.4,2.4
	l4.6-2.9c1-0.7,1.7-1.2,2.9-1.2c1,0,2.4,0.7,4.6,2.2l0,0h0.2v0.3l2.4,2.9l1.2,2.9l1,1.2l0.7,0.5l3.1,2.2l1.7,0.2
	c1,0.2,1.9,1,2.6,1.9c0.5,0.7,3.1,1.7,7.7,2.9h0.2l7.2,2.7h0.2h0.2l5.1,2.4l8.7,2.2l0.2,0.2l11.3,0.5l5.1-1.9h4.6v0.2l0.2,0.2
	l3.8,4.8l0,0v0.2l2.4,3.9l1.9,2.2l2.6,1.2l0.2,0.2l0,0l0.2,0.2l2.2,4.8v0.2h0.2v0.2l1.2,5.3l3.4,1.2h0.2h0.2l0,0l2.6,1.7l3.6-0.7
	l1-3.6v-0.2l0.2-0.2l4.1-4.1l4.6,1.2v0.5l2.2,4.8l4.6-1.7l0.5-4.6v-0.2v-0.2l0.2-0.2l3.1-1.7l-0.7-6.7v-0.5v-0.2l0,0l3.6-7.5
	l3.6-1.4l-1.4-6.7h3.6l-0.2-3.1l-1.9-6.5l0,0v-0.5l0.5-4.6v-0.7l0.5-0.2l2.4-3.1l0.5-0.5h0.7l6.5,1.2h0.2l5.3,1.4l4.6-1.4l2.6,5.3
	l0.2,0.2v3.9l0.7,3.6c0.5,1.4,1.4,2.4,2.4,2.7h0.5c2.2,0.5,3.4,1.4,3.6,2.9c0.2,1.2,1.2,2.9,2.9,4.8l2.2,3.1l0,0v0.2l1.4,2.6
	l2.2-0.2l4.1-3.6l2.6,5.5l5.3,1.7h0.2l0.2,0.2l2.6,4.8l1.2,0.7l0.2-4.6v-0.2v-0.7l10.6-0.2l0.2-1c0.2-0.5,0.2-1.4-0.2-2.2
	c-0.7-1.4-1-2.6-1.2-4.3c-0.2-1.9,0-3.4,0.5-3.9c0.7-1,1.2-1,2.4-0.7l4.3,1.4l0.5-3.1l-7.9-3.6h-0.5l-0.2-0.5v-0.2v-0.2l-1.2-9.6
	l0.2-6v-0.7V465l13.2,1.7l3.4-3.1c0.7-1.2,0.5-2.2,0-2.4c-3.4-1.2-5.1-2.6-5.1-4.1c0-0.7,0.2-1.7,1.4-2.2l5.5-5.5l6-0.2l3.1-5.3
	v-5.1l4.6-1c1.2-3.6,1.9-5.5,2.4-6.3l1.9-4.1l-3.4-6v-0.2l0,0V421l-2.2-8.2v-0.2l-1.4-8.4l-2.9-4.8l-4.3-4.3v-0.2v-0.2l-0.2-0.2
	l-0.2-4.6l-7.9,2.4l-0.2-0.2l-3.6-4.1l-10.8-8.2h-0.2l-4.1-5.3l-2.6-1.7l-1.7,2.6v0.5l-0.2,0.2h-0.2h-0.5l-3.4,0.2l-0.5,0.2h-0.2
	l-7.9-8.7c-1.7-0.7-3.4-2.4-5.8-4.8l-3.6-2.6l-0.2-0.2l-4.1-2.4l-2.4,1.9l-0.2,0.5l-0.2-0.2h-0.2l-2.2-0.5l-2.4,1.2l-0.2,0.2
	l-0.2,0.2h-0.2l-3.4,0.5C419.3,358.9,414.7,356.2,409.9,353.4z"/>
<path class="st0" d="M424.1,471.5l-5.5-1.7l-5.8-0.7l-1.9,2.2l-0.5,4.1l0.2,0.2l1.7,6.3l0.2,4.8v1.4h-2.9l1.2,5.8l-4.6,1.7l-1.9,3.6
	l2.4,1.9l0.5,0.2l0,0l8.4,6.7l0.2,0.2h0.2v0.2v0.2l1.2,6l3.9,5.5c1,1.4,2.2,2.9,4.3,4.8h0.2l0.2,0.2v0.2l-0.2,0.5v5.3
	c0.7,1.4,1,4.6,1,9.1c2.2,3.1,3.1,5.3,3.1,6.7c0,1,0.7,2.9,1.9,5.5l0,0v0.2l0,0c0.5,3.4,0.2,6.3-0.5,8.7c-0.7,1.7,0.2,4.8,2.9,9.1
	l0.2,0.2l0.2,0.5l-0.2,0.5l-3.8,8.4c0.7,1.9,1,3.4,1,4.3l-1,7.9c-0.5,2.6-0.5,4.1,0.7,4.6l1.4,1c2.2,1,2.9,2.2,2.9,3.4l-0.2,4.1
	l1.2,0.5l0.2,0.2l0.7-0.7c0.7-0.7,1.4-1.7,1.7-2.9l0.5-0.7l0.2-0.5c1-0.5,1.4-1.2,2.2-2.2c0.2-1.4,0.2-2.9-0.2-4.6l-0.5-1.2l1.2-0.2
	c3.9-1,6-0.7,6.7,1l1.9,4.8v0.2v0.2l1,8l3.1,1.7h0.2h0.2l1.9,1.7l1.9-2.2l2.2-1.7h0.7c1.7,0.5,2.7,1.7,3.1,3.4l1,6.3l0.2,1l6.5,14
	l2.6,2.6l0.2,0.2v0.2l1.2,5.8l0,0l0.5,5.5l0.2,0.5c1.7-2.4,3.1-3.6,4.1-3.1c1,0.2,1.2,0.7,1.2,1.7v1.4v4.3v1.2
	c1.2,0.3,2.2,0,2.4-0.7l2.4-3.4l2.6-2.6c1.7-1.2,3.4-2.2,5.3-2.2h0.2l5,1.2l1.4-0.7l2.7-3.4l-0.5-5.3c-1.7-2.9-2.4-5.3-1.9-7
	l0.7-4.3v-0.5l0.2-0.5l0,0l4.6-2.7h0.2l0,0l3.4-2.2l3.8-5.5l0.5-4.1l-4.3-10.1l9.6,4.3v-4.1l0,0v-0.2l3.6-3.1l7-1.9h0.5l4.1,8.9v0.5
	l-0.5,3.4l0.5,3.1c0.5,1.4,1.4,2.2,2.2,2.2c1,0,1.9-0.7,2.9-1.9l0.2-0.5l0,0h0.2l5.8-1.9l0,0h0.2c3.1,0,4.6,0.7,5.3,2.2l0.5,6.5v0.2
	l1.2,0.2l2.4,0.7l3.6-0.2l6-1.7l3.6-3.1l0.2-2.6l-1.7-1.9l-6.3-2.2l0,0l-0.5-0.2l0,0v-0.2l-7.2-7.2l0.7-0.5l3.6-3.1l0.2-0.2l0,0
	l3.6-1.4l0,0h0.7l4.8,1h0.2l0.2,0.2v-1.9l-2.2-3.6l-3.4-1.7l-4.6-6.7l0,0l-0.2-0.2v-0.2l-2.2-7.9v-6l3.8-3.6h5.8l13.5,1.2l6.3-8.9
	v-0.5h0.5l5.1-2.6l2.7-5.3l0.2-0.2l6-5.1l2.9-5.3v-0.2h0.2v-0.2l0,0l2.4-2.4l2.9-4.8l1-7.5v-0.7l0.2-0.2l3.8-2.6l1-1l-5.8-1
	l-9.6,0.5l-0.2-0.2l-3.6-2.9h-0.5V511l0,0l-1.9-2.9l-0.5,0.2l-0.2,0.5c-0.5,0.7-1.7,1-3.1,1l-1.4,0.7c-0.5,0.2-0.7,0.5-1.4,0.2
	c-0.5,0-0.7-0.7-1.2-1.9c-0.2-1.2-0.7-2.4-2.2-3.6l-0.2-0.2v-0.2h-0.2l-1.2-3.1h-1l-3.6,2.4l-0.2,0.2h-0.2l-8.4,1.7h-0.5l-0.5-0.2
	l-5.5-3.8l0,0l-0.2-0.2v-0.2h-0.2l-1.4-2.9l-4.1,4.3c-2.9,3.4-5,4.3-6.5,3.4l-5.5-2.9l-3.8-0.5L540,503l-3.6-2.6l-0.2-0.2l-0.7-0.2
	l1.7-6.5v-2.2l-2.2-1h-0.2l-5.1-5.5l0.2-4.1l-12.5-1.2l-4.8-2.7c-1.2-0.7-2.2-2.2-2.9-4.6l-0.7-1.7l-1-3.6l-1.7,0.2l-3.9,3.1
	l-4.6,5.5l1,4.1l1.4,5.3v0.2h0.2l-0.2,0.2v0.2c-0.5,1.4-1.9,2.2-4.1,2.2h-4.8l-2.9-1.4l-3.6,1.4l-0.7,0.2l-0.5-0.2l-0.5,3.4L483,492
	v0.7h-0.7l-6-1.9c0,1.9,0.2,3.4,1.2,5.1c0.7,1.7,1,2.9,0.2,4.3l-0.7,1.9c-0.7,0.7-2.9,1-6,0.7h-4.1l-0.2,6.7l-5.3-1.9h-0.2l-0.2-0.2
	l-2.6-5l-5.8-1.9l-1.4-3.1l-2.2,1.7h-0.2l-3.6,0.7h-1l-1.9-4.3l-1.9-2.6l-0.2-0.2c-1.9-2.4-2.9-4.6-3.4-5.8c0-0.2-0.5-0.7-1.7-1
	l-1-0.2c-1.7-0.7-2.9-2.2-3.6-4.3l-1-4.1v-3.4l-1.7-3.1l-2.9,1h-0.2h-0.2H424.1z"/>
<path class="st0" d="M99.7,392.8v0.2c-1,2.2-2.6,3.6-4.6,5.3c-1.4,0.7-1.9,1.9-1.9,3.4v0.7c0,1.2-0.7,3.1-2.6,6l-0.2,1.2
	c-0.5,0.7-1.4,1.2-3.1,1.2l-13.7-1.7v0.2l-1,3.1v0.2l-0.2,0.2l0,0c-3.6,5-6,8.7-6.3,11.1c-0.2,1.2,1.2,5.5,4.3,13l2.2,5.1
	c1,2.4,0.2,5.3-1.9,8.4l-4.3,4.3H59l-1.4-7.9l-1.9,9.9l3.1,4.8c0.2,0.7,0.2,1.2,0,1.4l-0.5,0.5c-1,0.7-2.4,3.1-3.9,7.2
	c-1.4,3.6-0.7,7.2,2.2,11.1h5.8c1.9,0.5,4.8,3.6,8.9,9.1l0.2,0.5l0,0c0,1.7,0.7,2.9,1.9,3.8l12.8,11.8v0.2l5.8,7.2h3.4l3.6-6.5
	l0.5-0.5l0.2-0.2l8.9,2.2v0.2v0.5l1.2,6l10.6,12.3l3.6,1.4l0.2,0.2l1.7,1l0.2,0.2l7.9,11.8l6.5-1h0.5h0.2l0.5,0.5l0.2,0.5l5.5,11.5
	l6.7,4.1l5.5,1.4l2.7,7.5h4.1l0.2,0.2l0,0l8.7,4.8v0.2l0,0l0.2,0.2l6.3,7.7l9.1-1.7h0.5l3.4,1.4h0.2l5.8,5.1l10.3,0.7l6.3-1l0,0
	c8.4-1.4,13.7-0.7,15.6,1.4c1.2,1.9,0.5,3.9-2.4,6.3l-2.4,2.4c-0.7,1.2,0.2,3.1,3.4,6l0.2,0.5h-0.2l1.9,1.4l0.7-0.7
	c6-11.3,10.8-17.6,14.2-18.8c3.6-1.2,11.1,1.9,22.9,9.1l14.4,2.7l-0.2,0.5v0.5l-0.7,6.7l7.2,1l-0.2,9.1c2.2,4.1,3.8,6.5,4.8,7.2
	c1.4,1,8.7,1,21.4,0l7.5-3.9l7.2-10.1l8.4-0.2l4.1-1.2l15.9-9.1h0.2l0.2-0.2l0,0c9.1-1,14.4-1.2,15.9,0l10.3,8.7l3.1,1.2l0.5,0.5
	l4.1,1.7l0.2,0.2v-0.7v-0.3v-0.2V607l1.7-7.2c-0.7-2.2-0.7-3.8,0-5.3c0.5-1.2,1.7-1.9,3.6-2.4c3.6-0.7,7,2.4,10.3,9.2l0.5,0.2h0.2
	l6-2.7c1.2-0.2,1.7-1.4,1.7-2.6l-1.2-4.3v-0.2c-0.5-1.9,0-3.6,1.9-4.3l2.2-1.7l5.3-5.8l3.6-8c-3.1-5-4.1-8.7-3.1-11.1l0.7-6.7
	c-1.4-2.9-2.2-4.8-2.2-6.5c0-0.7-1-2.9-2.9-5.8h-0.2V541l-0.7-8.7c-0.2-1.5-0.5-3.4,0-5.8c-2.2-1.7-3.6-3.4-4.6-5.1l-3.6-4.8
	l-0.2-0.2V516v-0.2l-1.2-6l-3.6-2.9v0.2l-7-5.5v0.5l1,7.5v0.2v0.7l-3.6,1.7l-0.5,4.6v0.7l-8.4,3.4l-2.9-6.7l-1.7-0.5l-2.6,2.6
	l-1.7,4.8l-6,1.7l-3.4-2.4l-4.8-1.4l-1.4-6.7l-1.9-4.1l-2.9-1.2l-0.2-0.5l-2.2-2.6l0,0l-2.2-3.9l-3.4-4.3h-2.9l-4.8,1.7l-0.2,0.2
	l-12.3-0.7l-9.4-1.9c-0.7-0.5-2.4-1.2-5.1-2.9l-7.2-2.4c-5.5-1.4-8.7-2.7-9.4-4.1l-1.2-0.7l-1.7-0.5l-4.3-2.4l-0.5-0.2
	c-0.7-1-1.4-1.7-1.9-2.7l-1-2.2l-1.9-2.9l-3.1-1.4l-1.2,0.7l-1.2,1l-0.7,0.5c-1.2,1-2.4,1.5-3.4,1.7c-1.9,0.5-3.8-0.5-6-2.9
	l-4.6-4.8c-1.7-2.2-2.9-3.8-3.4-5.1l-1.2-1.9c-1.7-1.7-2.9-3.4-3.6-4.8c-0.7-2.2-1-4.1-0.2-6v-0.2l0,0l3.1-5.3l1.7-5.5l0.7-3.6
	l-1.2-5.5l-3.6-3.1l0.7-4.6c0-3.4,1.2-5.1,3.6-5.5c0.7-0.2,1.2-0.7,1-1.7v-0.2l0.2-4.8v-0.2l0,0v-5.5h-0.5l-0.2-0.2l0,0l0,0l-1-0.5
	v-0.2h-0.2l-4.3-2.9l0,0h-0.2l-3.4-2.9l-11.3-2.2l0,0l-3.6-2.6h-6.7c-1,0-2.2,0.7-3.8,1.7h-0.2l-5.3,1.9H214c-1.9,0.5-3.6,1-4.6,1.9
	c-1.4,1.2-4.1,2.2-7.7,3.4l-6.3,1.4v0.3H195l-8.9-1l-0.7-0.2l0.2,0.2l-0.2-0.2l-3.1-0.2l-5.3,1.7l-10.6,1h-0.2l-0.2-0.2l-5.3-1.9
	h-4.3c-1.9-0.5-4.1-1.9-6.5-4.8l-0.2-0.5c-0.5-2.2-1.2-3.1-1.4-3.6l-1.2-0.7l-2.2-1.2l-1.9,1.9l-0.2,0.5l-7.7,3.1h-0.2h-0.5l-9.4,1
	c-1.4,0-4.1-0.7-7.7-1.7l-8.2-1.4h-0.2l0,0l-4.8-2.6H99.7z"/>
<path class="st0" d="M399,692.4l-1,3.1c1.4,0,3.4-1,5.3-2.4l0.2-0.2h0.5l9.6-1.2l6.3-3.1l2.4,3.4l0.5,0.2l-2.9,4.6l3.4,3.4v0.2v0.7
	l-2.4,10.1l6.3,4.6l11.3,0.5l-1.7,2.2c-7.2,8.9-10.6,14.2-10.3,15.9l4.3,1c5.8,0.5,9.1,2.2,10.3,4.3c1.4,2.9,2.9,5.8,4.1,9.1
	l6.5,3.6l4.1,0.7l8.4-7.2l4.3,6.5v0.2l0,0l0.2,0.2l1.4,6l3.6,0.7l0,0l5.5,1.9l1.4-0.5v-0.2l-1-6.3l-0.2-0.2l-3.1-14.2v-0.5l1.9-9.9
	l0.5,0.2h0.7l6.5,0.5l8.2-6l0.7,0.5c4.3,3.4,7.2,6,8.7,7.9c1.4-0.5,4.1-3.1,7.7-7.2l0.2-0.2l0.5-0.5l12,3.1l5.3-4.3l0.2-0.2l0.2-0.2
	h0.2l0.2,0.2l5.1,1l16.4-14.4l5.1,1.4l0,0l0.2,0.2l0.2,0.2l0.2,0.2l1.2,2.2l1.2-1.4h0.2v-0.2h0.2l4.8-2.6l3.6-3.4l-1-7.5l-0.7-1
	l-4.6,1.9l0,0c-1.4,0.5-2.6,1-4.3,1H553c-1.7-0.2-2.6-0.7-3.4-1.7l-0.5-7.7c-1.7-1-2.4-1.4-3.1-1.4l-1.2,0.5l-1.7,1l-3.4,0.7h-1
	l-0.2-0.5l-1.9-3.4l-0.2-3.1l0,0l1.9-9.1l0,0h0.2V676l2.2-4.6l-6.7-6l-0.2-0.2l-0.2-0.2v-7l0.2-0.2l3.9-11.1l-2.4-6l-2.2-0.5
	l-2.6,0.2l-2.6,4.1l-3.4-2.4l-3.4-1.9l-2.6-6.7l0,0l0,0l-1-4.8v-0.5l-0.2-0.2l0.7-0.5l3.1-4.3l0.7-0.5l0,0h0.2l2.4-0.5l2.6-0.7
	l12.5-0.5h0.2l1.7,0.7l0.5,0.2l1.9,0.7l3.4-1.4l2.9-2.1l1.4-2.4l0.3-1.2l-0.3-5.3l-2.6-0.5l-5.1,1.7c-1.4,1.7-3.1,2.9-4.8,2.9
	c-1.7,0-3.1-1.5-4.6-4.1l0,0h-0.2v-0.2l-0.2-3.4V606l0.2-3.1l-2.6-6.5l-5.1,1.4l-2.2,1.9l0.7,7.2l-7.9-3.6l1.9,4.3l0.2,0.2v0.5
	l-0.7,4.8v0.5h-0.2l-4.6,6.5l0,0l-7.5,4.6l-0.7,4.3c-0.2,0.7,0.7,2.6,1.9,5.1l0.2,0.2v0.2l0.5,6.3v0.7l-0.2,0.2l-2.9,3.9l0,0
	l-0.2,0.2h-0.2l-2.2,1.4h-0.2H502h-0.2h-0.2l-5.5-1.2c-1,0-2.2,0.5-3.4,1.4l-2.4,2.7l-1.9,2.4c-1.2,2.2-2.9,2.7-5.5,2.2
	c-1.7-0.2-2.2-1.9-1.7-4.1v-1.7l-0.2-1.7l-1,1.2c-0.7,1-1.4,1.2-2.4,1.2c-1-0.2-1.7-1.2-2.2-2.9v-0.2l-0.5-5.5l-1.2-5.3l-2.4-2.4
	l0,0l-0.2-0.2l-5.1-11.6l-0.2-0.2l-1.4-3.4v-0.2H464v-0.2l-1-6.3l-0.7-1l-1,0.7c-1.7,1.9-2.9,3.1-3.4,3.1c-0.7,0-1.9-1-3.9-2.4
	l-3.6-1.7l-0.5-0.2l-0.2-0.2v-0.3l-0.2-0.5l-0.2-4.8l0,0l-0.7-3.6l-1.9-4.8h-1.9c0.2,1.9,0,3.6-0.5,4.8c-0.5,1.4-1.4,2.4-2.9,3.6
	c-0.5,1.7-1.2,2.9-2.2,3.8c-1.4,1.4-2.6,1.4-4.1,0.5l-0.7-0.2c-1.4-0.5-1.7-2.2-1.4-5.3v-1.2l-3.1-1.9c-1.2-0.5-1.9-1.9-2.2-4.1
	l1.2-10.8l-0.5-1.7l-3.9,4.3l-2.6,1.9l-0.7,1.7c1,2.2,1.4,3.9,1.4,5.1c0,2.4-1.2,4.3-3.4,5.1l-4.3,1.7l-1.2,0.7l-0.2,1.7v6.7
	c0.2,2.2,0.5,3.4,1.2,3.4c1.4,0.7,3.1,0.7,4.6-0.5l1.4-0.7l4.6,10.6v0.2l0,0v0.5c-1.7,19-3.4,29.8-5.5,32.7c-1,1-1.7,1.4-3.1,1.7
	c-1.7,0-2.9-0.2-4.6-1.2c-6.3,12.5-10.3,19-12.3,20h0.2c-1,0.2-1.4,3.4-1.2,8.9l1.4,1.2l0.5,0.5l0.5,0.5L399,692.4z"/>
<path class="st0" d="M611,582.4l-1.7-0.7l-1.9,1.2l-1.2,2.2c-1,2.2-1.9,3.4-3.6,3.4c-1,0-2.2-0.7-2.9-1.4l-0.2-0.2l-0.2-0.2l0,0
	l-0.7-2.4v-0.2l-0.2-3.1l-1.4-0.2l-0.2,0.2l-0.7,2.4v3.4l-0.2,0.2l-0.2,0.2l-2.9,3.9l-0.5,0.5h-0.5l-5.8-0.5h-0.5v0.2l0,0v0.2
	l-1.9,2.6l0.7,1.7h0.2l-1.7,2.6h-5.3v-1l-0.5-0.5l-0.7-0.5l-1,1.7l-0.2,0.7h-3.6l-0.2-0.2l-2.2-1.7l-0.2-0.5v-0.2h-0.2v-0.5
	l-3.9-0.7l-2.9,1.2l-1.7,1.2l4.8,5.5l6.3,1.9l0.2,0.2l0,0l0.2,0.2l3.1,2.9l-1.2,4.8l0,0v0.7h-0.2l-4.1,3.4v0.2h-0.2l-6.7,1.9h-0.2
	l-3.9,0.5l0,0h-0.2l0,0h-0.2l-2.7-1l-1.4-0.2l-1.4,2.4h-0.2v0.2l-3.1,2.2h-0.2l0,0l-4.3,1.9h-0.2l-5.1-1.7l-11.1,0.5l-2.4,0.7
	l-0.2,0.2H523l-2.6,3.6l0.5,4.1l2.4,5.5l2.6,1.4h0.2v0.2l1,0.7l1.7-2.4l0.2-0.2l0.2-0.2h0.2l3.6-0.5h0.5v0.2l3.6,1l3.6,8.2h-0.2v0.2
	l-1.4,4.6l0,0l-1.2,2.9v0.2l-1.7,4.1v5l2.9,2.9h0.2l3.9,3.4l0.5,0.2l0.2,0.2l-2.9,6.7l-0.7,3.1l1-0.5h0.2l2.4-1l4.3-2.4h0.2l4.8,0.7
	h0.2l0,0l7.2,2.9h7.9l2.2-2.9l0.2-0.2l0.2-0.2l4.1-1.9l3.9-3.4l0.5-0.2l0,0l2.9-1l3.1-2.4l3.6-4.8l5.1,1.9l0.7,0.2v0.2l0.2,0.2
	c0.7,1.9,1.4,2.9,2.2,3.1l3.1-0.5h0.7l1.7,0.5h0.2v0.2l4.1,1.4h1.2l0.2-1l0.5-1.4v-0.2l0.2-0.2l0.2-0.2v-0.2l1.4-1l0.2-0.2l2.6-2.2
	h0.2l0.2-0.2h0.5l2.4,0.2c0-1.4,0.7-2.9,2.2-4.3c1.7-1.2,2.9-1.9,3.6-1.7l1.4-1h0.2v-0.2l1.2-1.2v-0.2h0.2l0.2-0.2h0.2l3.9-1h2.2
	l1-0.7l0.7-1.4l0,0l1.2-2.4l-0.5-0.3c-1.4-1.7-2.4-3.6-2.9-6.3l-0.2-0.2l0,0h0.2v-0.2l1-5.3c0-1.7,0.5-2.9,1.7-4.1l-0.5-4.3
	c-0.2-0.5-0.7-1-1.9-1.2l-7.7,3.1l0.5-7.9c0.2-1.2,2.6-3.4,7.2-6l-2.2-8.4c-0.5-2.9,0.2-5.1,2.2-7l-0.5-1.4h-2.4l-0.7,0.2l-1.2,3.4
	c-1,1.2-1.9,1.9-2.9,1.9h-0.5l-2.4-1.7h-0.2h-0.2v-0.2v-0.5l-0.7-1.7l-0.2-2.4v-0.2l-0.2,0.5l-0.2,0.7h-4.3l-0.5-1l-0.7-2.6v-3.6
	L612,588v-3.9L611,582.4z"/>
<path class="st0" d="M659.9,644.8l0.2,0.2l0.5,0.5l-3.1,4.8c-1.2,1.4-2.9,2.4-4.8,2.4h-0.5l-2.4-1.4l-2.4,0.2l-4.8,3.6
	c-1.2,0.5-2.6-0.7-4.8-3.6l-1.4,3.1h-0.2l0,0l-0.2,0.2l0,0l-1.7,1.7H631l-3.1,1l-3.9,2.9h-1.2l-1.4,1c-1.2,1.2-1.7,2.2-1,3.1
	l1.7,2.4l-6.7-0.7l-3.6,2.9l-0.5,1.2v0.2l-0.7,1.9l-0.2,0.2l-0.2,0.2h-3.4l-4.3-1.7l-1.4-0.2l-3.4,0.5c-1.4,0-3.1-1.7-4.6-4.3
	l-2.9-1.2l-2.4,3.6l0,0h-0.2l-3.4,2.9h-0.2v0.2h-0.5l-2.6,0.7l-3.8,3.4l0,0l-4.1,1.9l-2.9,3.8h-9.6l0,0l-7.5-2.9l-4.1-0.5l-3.6,1.9
	h-0.2l0,0l-2.4,1c-1.2,0.5-2.2,1.2-2.9,1.4l-0.5,1.2v2.9l1.2,1.9l5.8-1.9c1.2,0,2.9,0.7,5.1,1.9l0.5,0.2l0.3,0.2l0.2,8.2l1.2,0.2
	h5.1l3.1-0.7l0.5-0.5c1.9-1,3.6-1.7,5.8-1.9l1-0.2l0.5,0.7l1.4,2.9v0.2l0.7,7.9v0.7l-4.3,4.6h-0.2v0.2l-5,2.4l-1.7,1.9l0.7,1.4
	l10.4,1l0.2,0.2l0,0l0.2,0.2l4.1,2.4l9.1-0.2v1.2l0.5,4.6v0.5h0.2l-4.1,4.1c-0.5,5.3,0.5,8.4,2.6,9.1l7.7,4.1l6,4.1l5.1-2.4l0.5-0.2
	l0.5-0.2l0.2,0.2l7.7,5.8l1.2,0.5l1.9-2.4l0.5-0.5l0.2-0.2h0.2h0.2l4.6,0.7l1-7.9l5.8,10.3l4.8,0.2l0.7,0.2h0.5v0.5v3.1l1.9-0.5
	l7.9-10.6l3.4,5.1v-1.7l0,0v-0.2v-0.2l2.4-4.8l2.2-3.6h6l1-6.7h0.7l0.5,0.2l4.6,0.7l0.5-2.4l-1.7-3.9V728l1-2.6v-0.5l0.2-0.2h0.2
	v-0.2l12.5-6.7l-0.5-6.5l0,0v-0.2l2.4-4.8l0.5-1l0,0l3.9-8.9l0.2-0.2l0,0l3.1-3.1l1.9-3.6v-0.5l0,0l1.7-2.9l-1.4-3.6V682h-0.2v-3.9
	h-1.9l-3.6,1.7c-1.7,1.2-4.1,0.7-7.2-1.2c-1.2-1-1.2-3.4-0.5-7l-1.9-0.2l-1,1.2c-2.2,2.4-3.9,3.9-4.3,3.9c-0.5,0-0.7,0-1.2-0.2
	c-0.2-0.7-0.7-1.9-0.7-3.8c0-2.2,0-3.6,0.7-4.1c0.5-0.7,1-1,1.4-0.5l4.6-8.4l1.2-3.1l0.7-3.6l-2.6-2.2c-0.7-0.7-1-2.4-0.5-4.8v-1.4
	c0-0.7-0.5-1.7-1.4-2.4h-0.5l-0.2,0.7c-0.7,1.9-2.4,2.9-5.1,2.2C663,644.3,661.6,644.3,659.9,644.8L659.9,644.8z"/>
<path class="st0" d="M645.4,533.1l-1.7-3.9l-2.6-3.9l-2.9-0.7H638v-0.2h-0.2l-2.4-1.2l0,0h-0.5l-1,0.2l-3.1,0.5h-0.2l-0.5-0.2
	l-3.1-1.2v-0.2h-0.2V522l0,0l-2.4-2.4l-2.6-2.7l-2.4-1.4l-2.6,2.4l-3.4,2.4l-1,7.2v0.2l0,0l-3.1,5.3v0.5h-0.2l-2.4,2.4l-2.9,5.5l0,0
	l-0.2,0.5c-2.2,1.7-4.1,3.4-6,4.8l-2.4,4.3c-0.5,1.2-2.4,2.6-6,4.1l-2.4,4.1l0,0l-4.1,5.5h-0.2v0.2h-0.5l-19.3-1.2l-2.2,2.2v4.1
	l1.9,7.9l4.1,5.8l3.4,1.9v0.2h0.2l0,0c1.9,2.4,2.9,4.1,2.9,5.3v3.1l-1.2,1.2l0.7,0.5h1l1.4-2.9h0.5l3.8,1.2l0.2,1.2h1.9l0,0
	l-0.5-1.4l-0.2-0.5l2.6-4.1c0.5-1.2,1.7-1.7,3.4-1.2l4.3,0.2l2.4-3.1v-2.9l1-3.1v-0.2l0.2-0.2l0.2-0.2l1.7-1v-0.2h0.2l0.2,0.2
	l3.6,0.5v0.5l0.7,2.9v1.4l0.5,2.2l1,0.2l1.2-1.7v-0.2l1.9-2.6l0.2-0.5l2.6-1.2h0.2l0.2-0.2l3.1,1h0.2l0.5,0.2l1.7,3.4v3.4l2.4,4.6
	l0,0v0.5v3.4l0.7,1.4h0.7l1-1.2l0.2-0.5l2.9,1.7h0.2h0.2v0.5v0.2l1,4.1l1.2,0.7l0.2-0.5l1.2-3.1v-0.2l0.2-0.5h0.2h0.2l1.7-1h0.2
	v-0.2h2.2l-0.5-1.2v-0.5l-1.2-11.3l-4.6-7.5l-8.7-10.1l-0.2-0.2l-0.5-6.5l-2.9-5v-0.3l-0.2-0.2l0,0l0.2-0.5l1.4-6.3h0.5h0.5l15.2-1
	l8.2-4.3l0,0l0.2-0.2c2.9-1,4.8-2.2,5.3-3.4C645,537.2,645.4,535.5,645.4,533.1z"/>
<path class="st0" d="M705.1,322.1l1-1.2l-1.7-3.8l-1.7-1.9l-1.9,3.1v0.2l0,0l0,0l-3.1,3.6l0,0l-0.2,0.2h-0.5l-5.8,1.7h-0.5l-5.5-1
	l-3.1,1l-0.7,2.6l0,0l-0.2,0.5l-2.7,1.7l-0.5,0.2h-0.5l-4.8-0.5l-0.2,0.5v4.8l-0.2,0.2l-2.6,3.4l0,0v0.2h-0.2l-4.6,4.6h-0.2
	l-0.2,0.2l-4.8,1l-3.1,3.4l0.7,4.1v1l-0.7,0.2l-3.6,3.4l-1.9,2.4l1.4,3.1v0.2v0.2v4.6l0,0v0.2l-2.6,3.9v0.2l-3.6,4.1l0.5,4.8
	l3.1,2.9v0.2l0,0c1.4,2.4,2.2,4.3,2.2,6v5.3h-0.2l-0.2,0.2l-4.8,3.6l-0.5,7.2l0.5,7.2c0,2.4,1,7,3.4,13.7v0.2v0.5l-5.3,24.5l0.5,4.8
	l3.6,1.7l5.8-5.8l0,0h0.2l18.5-7.2l4.8-4.3l0.5-0.5l0.2,0.2h0.5l10.6,1c1.5,0,4.6-1.2,9.2-3.1v-5.1l0.2-0.2h0.2l2.9-2.6l-0.7-3.1
	v-0.2v-0.2v-0.5l0.2-0.2c1-1,1-1.9,0.2-2.6c-0.7-1.4-0.5-3.4,0.7-5.5l1.2-1.7l0,0l-0.2-3.4l-3.6-4.3c-1.7-1.2-1.9-2.9-1-4.6
	c0.5-1.4,1.2-2.9,2.4-4.1l1-4.1l0,0l0,0l2.6-5.8l0.7-2.6l3.8-7.2L707,375l-7.5-4.6h-0.5V370l0,0l-1.4-3.9v-0.2v-0.5l0.7-6.5l0,0
	v-0.2l1.7-4.8c-0.2-1.7,0-2.9,0.7-3.9c0.5-0.5,1.2-1,1.9-1l4.6-0.7l1.2-2.6l1.2-7.9l-1-2.9l-4.1-1h-0.2l0,0l-4.8-2.4l-0.2-0.2v-0.5
	l-0.2-0.2l-0.2-5.8v-0.5v-0.7L705.1,322.1z"/>
<path class="st0" d="M791.3,699.1c2.2-0.2,3.4-1.2,3.8-2.4v-0.2l0.2-0.7h1l4.3-0.2v-3.1c-1.2,0-2.4-0.5-3.6-1.5l-7.2-6.5v-0.2
	l-3.1-9.1l-4.3-4.3c-5.3-0.2-9.4-0.2-12.3,0l-1,0.2l0.2,2.9v0.5v0.7h-0.7l-3.8,1.7l-0.7-0.5c-3.1-3.1-5.1-4.3-6.2-3.6
	c-8.4,4.1-13.2,6-14.7,5.1c-1,0.2-2.2,1.2-3.9,2.9l-0.7,1l-1-1c-2.4-2.2-3.6-4.1-3.6-5.5c0-1,1.7-2.9,4.6-6c3.4-3.9,5.1-6,5.1-6.5
	l-0.7-1.2c-1-0.5-2.9,0.5-5.3,2.4c-2.4,1.7-3.9,2.4-4.8,2.2c-0.5,0-1-0.7-1.2-1.9l-0.2-0.5l-2.2-3.9l-4.6,2.9l-0.5,0.5l-0.2-0.5
	h-0.2c-3.4-1.9-6.5-3.1-9.6-4.3c-2.2-0.7-4.3,0.2-6.5,2.9l2.2,3.6c1.4,3.6,2.2,6,1.4,7.7c-0.2,0.7-1,1.4-1.9,1.4
	c-1.5,0.5-3.6,0-6.3-2.2c-2.2-1.4-3.8-2.6-5.3-3.4l-2.9-1.2v0.2l0,0l0.2,0.5v5.3l-3.9,4.3v4.1l1.7,4.3l0.2,0.2l-2.6,4.1l-1.7,3.9
	v0.2l-3.6,3.6l-6,13.7l0.2,7.5l-0.2,0.2l-13,7.5l-0.7,1.5l1.7,3.9v0.2v0.2l-1.2,5l-5.3-0.7l-1.2,6.5h-6.7l-1.4,2.4l0,0l-1.9,4.1
	l-1.2,15.2l1.4,3.1l0.2,0.5v3.1l2.9,3.6l0.2,0.5v2.9l7.7-0.5l0.5-0.7v-0.3h0.2v-0.2l2.2-2.9l-4.8-4.3l-0.5-0.5l-2.6-2.2l-0.2-0.2
	l-0.2-0.2v-4.8h4.1l0.5-1.7l-1.7-4.8h9.4l16.6-7.9l2.2-3.6l0.5-1.2l3.4,1.4h0.2l0.2,0.7l1.4,1.7l1.7-0.2l-0.5-3.6h5.5l5.3,1l2.2-3.6
	l0.2-0.2v-0.2l0.5-0.2l5.8-1.7l1-8.4l6,5.3l2.4,0.5l1.2-1.4l-0.7-18.3v-0.5v-1l4.1,0.7h0.2l0.5,0.2l0.2,0.2l6.5,11.8l8.2-1l1.4-0.5
	l1.2-2.9l-2.4-1.9l-0.7-1l5.5-1.9l0.5-0.2l0.2-0.2l2.2,2.4l1.9-1V715l1.2-0.2h4.1c2.9,0.2,5.1,1.7,6.7,3.9l0.5,1l1.7-5.8
	c1-1.4,2.9-1.7,5.8-0.5l0.5,0.2v0.2l0.2,0.2c0.2,0.2,0.7,0.5,1,0.5c1.2-0.5,5.5-3.4,12.5-8.9C786.2,702,788.1,700.1,791.3,699.1z"/>
<path class="st0" d="M792.2,558.1l-0.2-0.2l-5.3-4.6l-2.9,1.4c-1.9,4.3-4.6,7-7.9,8.2c-1,0.5-2.2,0.2-2.9-0.5
	c-1-1.2-0.5-3.8,1.2-7.9l-7.9,5l-0.2,0.5h-0.2h-7l-6.3,3.1v0.5l-6.7,0.2l-3.6,1.9l-1.7,3.4l-0.5,0.5h-7.9c-1.4,0-4.6,2.4-9.6,7.5
	c2.4,1,3.6,1.9,4.1,2.6l0.2,1.4V581l3.6,13.5l0,0l0.2,0.7v1h-0.2l-0.5,0.2h-0.2l-9.6,13.2l0.5,3.4c1.4-1.2,2.6-1.5,3.6-1
	c1.2,0.5,1.7,2.4,1.2,5.3c-0.5,4.6,0.2,9.6,2.4,14.4l3.4,3.6c1.2,1.2,1.7,2.4,1.4,3.6l-1.7,2.4l2.2,2.9c1.2,2.4,0.2,6.5-2.6,12.3
	l3.1,5.3l0.5,1.2l1.9-1.2c3.1-2.9,5.8-3.6,7.9-2.9c1.4,0.5,2.2,1.7,2.4,2.9c0.2,1.7-1.7,4.6-6,8.9l-3.4,4.3l1.7,2.6
	c2.4-2.2,4.3-2.9,5.5-2.4c1.4,0,5.5-1.4,12.5-5.1c2.2-1.2,5.1,0,8.7,3.6l1.4-0.7l-0.2-2.9l-0.7-0.5c-0.5-0.7,0-1.4,0.7-2.2l-1.2-4.6
	c-0.2-0.7-0.2-1.7,0-2.4c0.7-0.7,1.7-1.2,2.6-1.7l2.2-1.9l-1.2-2.9v-0.2h0.2v-0.2c1-1.4,1-2.6,0.7-3.4c-1-1.7-0.2-2.9,1.7-4.6
	l2.6-2.4l-0.5-0.5l-0.7-0.7l3.1-1.4v-3.9c0-1.4,1.2-3.4,4.6-5.8l1.4-1.2l0,0l-3.6-4.1c-1.2-1.7-0.7-3.9,1.4-6v-0.5l7.5-6.2l0.2-1.7
	c-1.5-0.5-1.9-3.1-1.2-7.2c1-6.5,3.8-9.6,8.9-10.3l0,0h0.5l3.1,1.7h3.4l3.1-3.8l0,0l0,0l0.2-0.2l3.8-2.4l-0.5-3.4v-0.7l0.5-0.5
	l1-0.5l1.2-1.5l0.2-0.2l-2.4-4.1c-2.4-3.1-4.6-6-6-9.4c-1.2-2.2-1-4.6,0.7-7.2l-4.3-2.6L792.2,558.1z"/>
<path class="st0" d="M811.9,590.4l-0.5,0.2l-4.1,2.9l-3.6,4.1h-0.2v0.5h-5.3l0,0l-2.9-1.7c-3.6,1-5.5,3.4-6.3,7.9l-0.2,4.1l2.9-2.6
	l-1.9,7.9v0.2v0.2l-7.9,7c-1.2,1.4-1.7,2.6-1.2,3.4l1.4,1.7c1.7,1.4,2.6,2.7,2.4,3.6c0,0.7-0.2,1.5-0.7,1.9l-5.1,4.3
	c0.2,1.2,0.2,3.1,0,5.3v0.7l-0.2,0.2l-1.9,0.7c0,1.2-0.5,1.9-1.7,3.1l-2.7,2.6v0.2c0.5,1.2,0.5,2.7-0.5,4.8c1.2,2.4,1.2,4.1,0,4.8
	l-2.4,2.4l-0.5,0.2l-1.2,0.5v0.5l1.7,5.8h0.5c4.1-0.5,8.4-0.5,13.2,0h0.5v0.2l5.3,5.3v0.2h0.2l3.1,8.9l6.5,6l2.7,1l0.2-7.5l6,6l1-1
	l4.3-8.9l0.7-5.1l0.7,0.3h0.5l4.6,0.2l-0.2-3.6v-0.7v-0.5h0.7l6,0.2c3.1-3.1,4.6-5.8,4.6-7.9l-1-8.7l5.3,1.7l1.4-2.4l-2.4-2.4
	l-0.7-1l4.8-4.8l0.2,0.5h0.5l2.9,1.7v-0.7l-1.9-4.3l0.7-0.7l1.2-0.7l-0.5-1.7l-2.4-4.6l0.5-0.2l0.5-0.5l6.5-3.6l0.2-2.7
	c-5.5-2.9-8.4-5.3-7.9-6.5c0.2-1,0.7-1.2,1.9-1.2l7.2,1.2l0.2-4.3v-0.5l3.6-3.6l1-2.6c-1.4-0.5-2.4-1.4-3.4-2.4l-0.2-0.5v-0.5
	l0.2-1.2l-0.2-0.5l-0.5-0.2l-0.2,0.2c-0.5,1-1.7,1.7-3.4,1.7c-2.7,0-4.8-1.2-6.5-2.9v-0.2h-0.2l-1.9-3.4l-0.5,0.5
	c-0.2,1.4-1.2,2.9-2.9,4.1c-3.1,1.4-6,1.9-8.9,0.7c-1.9-0.7-3.1-2.2-3.9-4.3l-0.7-4.8c-0.7-4.6-1.7-7.2-3.1-7.9
	c-1.4-1-2.9-1.2-4.1-1l0.2,4.1L811.9,590.4z"/>
<path class="st0" d="M850,521.6c-2.7,1.2-4.8,2.2-6.5,2.4c-1.4,0-3.9-0.5-7.2-1.7l-5.5-0.7c-1.7,0.7-3.6,3.1-6.3,7.2l3.6,7.7l-6,3.4
	h-0.2l-4.8-1.4c1.9,3.6,2.4,5.8,1.7,6.7l-0.5,1.9c-1.2,2.9-2.2,4.6-3.1,5.5l-8.4,7.5l2.2,1.2l-1.4,1.2c-1.9,1.7-2.4,3.6-1.4,5.1
	l5.8,8.9h0.2v0.2l2.7,4.8v0.2l0.2,0.2l-0.2,0.5v0.5v0.2l-0.5,0.5c1.2,0,2.2,0.5,3.4,1.2c1.9,1.2,3.4,4.6,4.1,9.6l1,4.8
	c0.5,1.2,1,1.9,2.2,2.4c1.9,1,4.3,0.7,6.5-0.7c1.2-0.7,1.9-1.4,1.7-2.2l-0.2-0.2v-0.5l4.1-2.9l0.5,0.5l3.1,5.3
	c1.2,1,2.4,1.5,4.3,1.5l1.2-0.2l0,0l-1-2.9l4.6,1.9h1.2h0.2l0.2,0.5l4.3,3.4l1.2-1.9l-0.2-8.2l0.2-0.2l0,0l2.9-3.6
	c0.2-0.5,0-1.4-1.2-2.6l-0.7-0.7l0.5-0.5l0.2-0.5l0.7-0.2l6-9.9l0.5,0.2l1.2,0.2l0.5,0.2v0.5l-0.5,3.8h0.5l6.7-6l-0.5-3.1h-1.2
	l-2.4,0.2l4.1-11.1l-3.6-0.5l0,0h-0.5v-0.5l-1.2-1.4c-0.7-1.4-0.7-2.6,0.2-3.8l5.8-0.3h3.6c0-1.2-0.7-3.4-2.9-7l-5.1-1.7l5.3-5.1
	v-1.2l-2.6,0.5h-1v-0.3l-0.2-0.2l-0.2-0.5c-0.7-2.4-2.2-4.3-4.3-5l-9.6,0.2l-4.1,4.8v0.2l-1.2-0.2l-15.2-4.8l14.7-3.8
	c1,0,3.4-2.4,7.5-7.2l-5-3.6L850,521.6z"/>
<path class="st0" d="M792.7,479.7h-0.2v-0.2c-2.7-9.1-5.1-14.2-6.7-14.9l-8.4-2.9c-4.8-1.4-8.2-2.4-9.6-3.4
	c-2.4-1.4-5.5-4.8-9.1-10.4h-1.4l0.2,0.3c0.5,1.9,2.4,5.3,6.5,10.1l0.2,0.2l0.2,0.5l-3.9,7c-1.4,2.6-2.9,3.8-4.3,3.4
	c-1-0.5-2.9-2.7-6-6.7l-4.1-1.2c0,1.2,0.7,3.6,2.4,7.5v0.2v0.2v0.2v0.2l-0.7,2.6l-4.3,1.9l0,0l-1.4,0.5c-0.7,0.7-0.7,1.9-0.5,3.4
	c0.5,3.6,0.2,5.8-0.5,6.7c-0.5,0.5-0.7,0.5-1.2,0.5h-0.2l0,0l-4.8-1c0.2,1,1,1.9,2.2,2.6c2.4,2.2,4.3,5.3,6.3,8.9l0.2,0.7l0,0
	l2.2-0.5c2.6-0.5,5,0,7.5,1.7l2.6,3.1l0.2,0.2v0.2h-0.2l-0.2,6.3c0.7,1,1.2,2.2,0.7,3.1c-0.5,1.2-1.4,1.9-3.1,2.2
	c-1.9,0-2.9,1.2-3.4,3.6l0,0l0,0v0.2l-1.9,4.1l2.9,2.9l6.3,1.2h0.5l0,0l3.1,3.4l-3.9,5.8l8.9,19.3l0.2,0.5l-1.4,1.7l0.5,1.4h0.2
	l16.4-10.3l-2.6,4.8c-2.2,3.6-3.4,6.7-3.8,8.9c2.9-1.2,5.3-3.4,6.7-7.2l0.2-0.5h0.2l4.6-2.4l0.2-0.5l6.5,5.8l7.2,0.2l0.2,0.2
	l3.4,2.2l8.9-7.7c0.7-0.7,1.4-2.2,2.4-4.6l1-1.9c0.2-1-1-3.4-3.4-7.5l-2.2-3.1l10.6,3.6l3.1-1.7l-3.1-6.7l-0.2-0.2l5.3-7l-2.2-3.4
	c-2.2-2.4-3.6-3.6-4.6-3.6l-0.5,0.2l-2.6,2.6l-0.5-0.2h-0.5l-4.3-1.4l-1.2-3.9c-1.7-0.2-3.4-1.2-4.8-2.9l-2.7-1.7
	c-2.2-1-3.4-2.2-3.4-3.4c-0.5-1.4,0-3.1,1.4-5.3c2.6-3.9,4.1-7,4.1-9.4v-3.1l1.7,0.2l5.5,0.2c0.5-0.5,1.2-2.9,2.2-7.2l-1.7-0.2
	c-3.9,2.7-6.7,4.3-8.9,5.1c-2.6,0.7-6-0.7-10.8-4.1v-0.2L792.7,479.7z"/>
<path class="st0" d="M834.3,248.2l-2.9,3.8c-0.5,0.7-0.7,2.2-0.2,4.6v1.4h-5.8h-0.3l0,0l-4.1-1.2l-3.1,4.8l-0.5,0.5l-3.9,2.4
	l-3.4,3.6l0,0l-0.5,0.7l0,0l-6,7v0.2h-0.2l-4.6,2.4l-3.6-2.4v-0.2l0,0l0,0l-3.4-3.6l-2.2-1.2l1.7,9.9l1.4,5.3l-3.6,3.4l-5.1,7.5v3.1
	l-0.2,0.2h-0.2l-1.2,1.9l1,1.7h1.9l7,1.9h0.2h0.3v0.2h0.2l1.4,1.4l1.9,1l0,0h0.5v0.2c0.7,1,1.2,1.9,1.2,2.9l0.7,2.2l7.5,2.2l2.2-0.5
	l2.2-2.9l5.8-11.1h0.2v-0.2l2.6-3.6l0.2-0.2l4.6-2.2l3.1-0.2c1.2-1.9,2.2-2.9,3.4-2.9c0.7,0,1.9,0.5,3.9,1.4l0.5,0.2v0.2l4.1,6.3
	v0.2h0.2v0.5l0.5,4.6l-0.2,5.1l0,0l-1.2,4.3l0,0v0.5h-0.2l-3.1,3.9l-1.4,3.1l0.2,5.3h0.5l1.7-0.7l1.9-1.7l0.5-0.5l0.2-0.5l2.4,2.2
	v0.2v3.9h-0.2l-2.2,1l-0.7,1v2.2l-0.2,0.2l0,0l-1.4,2.6H836l-0.5,0.2l-1.9,0.2l-1.9,0.5l-1.4,2.6l0.2,0.5l7.9-1l1.4-1.2l2.6-7l0,0
	l17.8-18.3h0.5l3.9-1.9l0.2-0.2v0.2h3.1l3.1-0.7l3.4-1.4l2.4-2.6l3.9-10.6l0,0v-0.2l14.9-15.6v-0.2l-1-8.4c-0.7-0.2-1.7-0.7-2.2-1.4
	l-0.5-0.5v0.2l-2.4,0.2c-1.2-0.5-1.9-1-2.9-2.2l-0.7-1.4v-0.2l-0.2-0.2v-13c-1.4-0.5-2.9-1.4-4.6-3.1l-3.1-3.4l-2.9-4.1
	c-0.5-1-0.5-2.4-0.2-4.6l0.2-1.2l-1.7-2.2l-0.2,1.9l-2.2,4.1h-0.7c-1.7,0-3.6-0.2-5.1-1c-1.4-0.5-2.2-1.7-2.2-3.1v-1H862l-4.6,1.2
	l-3.4-3.4l-1.2-0.2l-1.2,1.2l1.4,2.4l0.5,0.7l-2.4,5.1h-0.2v0.2h-0.2l-4.3,4.8l-0.2,0.2h-0.5l-6.7,0.7L834.3,248.2z"/>
<path class="st0" d="M839.6,174.6l-1-5.1l-2.4,1.4H836l-5.8,2.2l-0.2-0.5l-1-0.2v2.7l-0.2,0.2l-2.9,4.3h-0.2v0.2h-0.2l-4.3,3.6h-0.5
	v0.5l-0.7-0.5c-2.9-1.2-4.8-2.6-5.3-3.8c-0.5-0.5-0.7-0.5-1.2-0.7l-3.1,0.5l-1.9,1.9l5.1,4.3l4.1,1.7l0.2,0.2h0.2l0.2,0.5v0.2
	l0.7,4.8h0.2v7.5l1,4.3l2.9,6.7l3.4,3.1l2.6-1.9l1.9-2.4v-0.2h0.2l3.4-4.1l2.9,2.6v0.2l0,0l0,0v0.2l2.9,5.5l3.6,1.4l1.9,5.8v0.2v0.2
	l-0.2,5.3v0.2h-0.2l-1.5,4.8l2.6,2.4l2.9-1.4l2.9-2.9l0.7,0.5l2.4,0.7l0,0l0,0l2.9,2.6l3.1-0.7c2.4-0.7,3.6,0,4.3,1.7v2.2l0.5,0.2
	l3.4,1l1.4-3.1v-1.2c0-1,0.2-1.9,1-2.2l1.9,0.2c2.7,1.2,3.9,2.9,3.9,4.8l-0.2,1.7v2.9l2.7,3.9l3.1,3.4c1,1.2,2.2,1.7,3.4,2.2h0.5
	c0.7,0.5,1.2,1.7,1.2,4.3v10.8c0.5,1,1.2,1.7,1.9,1.9h0.5c1.4-0.7,2.4-0.5,3.6,0.7l0.7,0.5c1.2,0.2,2.2,1.2,2.4,3.1l0.5,6l5.5-11.3
	c1.7-6,3.6-9.6,6.3-10.1c2.2-0.7,5.5,0.5,9.9,2.9l15.6,1.2l0.5-3.4l-7.2-7c-3.4-1.9-4.8-3.4-4.3-4.3l5.5,0.2
	c5.1,1.7,9.9-1.2,14.4-9.4l0,0h0.2l5.3-5.1l0.7-11.1v-1.2h0.7h0.5l4.1-1h0.7l0.5,0.2v0.2l8.4,8.9l2.4-1l0.5-1.4l-4.6-4.3l-0.7-0.5
	l-0.5-0.7l7-4.1l-0.5-10.1l-2.9,0.5l0,0h-0.2l-3.8-1.9c-1.4-0.2-3.4-1.2-6.3-2.9c-1.4-0.7-2.4-1.4-2.4-2.4v0.2c0,1-0.2,1.4-0.7,1.7
	c-0.7,0.5-1.7,0.7-3.4,0.7h-0.2l-0.2-0.2h-0.2l-3.4-2.4l-2.9,2.4c-1.4,1.2-2.4,2.2-2.4,3.1l1.4,3.1c0.7,1,0.7,1.4,0.5,2.2
	c-0.5,0.7-1.7,1.4-3.4,1.7l-1.4,0.7c-1.7,0.5-3.1,0.2-4.1-1l-0.5-0.7l-6.3-6.5c-2.9-1-4.6-2.2-5.3-3.6c-0.5-0.7-0.7-1.4-0.5-1.9
	c-0.3-2.2-0.7-3.6-1.2-4.3l-1.2,0.7l-0.2,0.5c0,0.7,0.2,1.4,1,2.4l0.2,0.5l0.2,0.2l-0.2,0.5l-3.4,5.5l-5.5-1.2l-1.2-0.7l0,0V203
	c0.5-1,0.5-2.2,0-3.4l-0.7-1.9l-4.6-3.4l-0.2-0.2c-0.5,0.7-1,0.7-1.4,1l-4.3-0.5c-1.4-0.2-2.4-0.5-2.9-1.4c-0.2-0.5-0.2-1.4,0.2-2.6
	l0.2-0.7l-1.9-3.4l-8.4,0.5c0.2,1.2,0,1.9-0.5,2.9c-0.2,0.7-1.2,1-1.9,1c-1.2,0.5-2.7,0-3.8-1.2v-0.2h-0.2c-1.9-2.2-2.7-3.8-2.7-5.3
	l-1.7-2.4l-2.4,1.7c-2.2,1.2-3.6,1.2-4.3,0.2l-1-0.2l-2.4,0.2l-6.5,2.2c-1.4,1-2.6,1.2-3.6,1.2h-0.7c-2.4,0-3.8-0.7-4.8-1.7
	l-3.8-3.1L839.6,174.6z"/>
<path class="st0" d="M989.3,129.3l-3.6-23.6l0.2-0.5h0.2c1.7-2.6,2.7-4.8,2.2-6.5l-1-1.4c-2.6-1.7-3.8-5.5-3.1-12h-2.2
	c-1.7-0.2-3.6,0.5-5.5,1.7c-1.9,1.4-3.1,3.1-3.4,4.3c-1,2.9-4.1,4.8-9.4,6.5l-1.2,7.5v0.2l-0.2,0.2l-2.6,4.8l-0.2,0.5h-0.2H959
	l-23.8,4.3h-0.2h-0.7v-0.5l-7-7.5l2.2-2.2l-2.6-3.6l-3.4-2.4l-0.2-0.2h-0.2v-0.2v-0.2l-1.2-6.5l-6.3,0.5l-0.5-0.5l-5.3-3.1l-19-3.4
	l-15.9-0.7l-0.5,0.5c-0.7,0-1.2-0.2-1.5-0.7l-9.1-20.7c-1-1.7-4.8-7-12.5-16.1c-7.2-8.9-11.3-13.7-12.5-14.7l-13.5-13.2l-2.2-1.2
	l-16.8-0.2h-0.2l-0.5-0.5c-1.7-1.2-4.1-2.4-7.7-3.1c-3.1-1.2-10.3,1.2-21.6,7.2l-0.5,0.2l0.5,3.4h0.2v0.2h-0.2v0.5l-1.9,3.9v0.2
	h-0.2l-0.2,2.6c0,2.2,0.5,4.6,1.2,6.5l1.7,1.2l3.6-0.2l3.1,0.7l1.2-1c0-2.2,0.7-3.9,1.7-4.3h2.4l8.4,2.4l1.9,0.2l-2.6,4.6v5.5
	c0,1.2,2.2,4.1,6.5,8.2c2.7,1.9,4.3,2.9,5.8,3.1l1.2-0.2l1.2-0.5l4.1-4.1l3.1-1.9v-0.2l0,0l6.5-1l1.9-4.1l5.8-3.4l5.1,2.9v0.2
	l0.5,0.2l4.8,8.2l1.9,5.5v0.7l-1,6.7l1.9,4.6v0.7l-1.4,5.3v4.8c1.4,4.3,2.2,7.2,2.2,7.9l-0.5,4.1l0,0v0.2l-2.4,3.4v0.2l0,0l0,0
	l-2.4,2.9l-0.2,5.3l1.4,5.5l0,0l0.2,0.2l-0.2,0.2l0,0l-1.4,8.4l-1.2,1.2c-1,0.7-2.2,0.7-3.6,0h-0.5l-2.2-2.4l-2.4,0.7l-3.1,3.4
	l-3.4,9.9v0.2l-0.2,0.2l-3.4,2.9h-0.5l-1.9,0.2l-3.8,5.5l1.9,3.6l0.5,0.5l4.8,6v0.2v1.9l5.3,0.7l1,4.8v0.2l0.7,5.8l1.4,1.2l4.8-1.4
	l4.6-2.6l0.7-0.5l1.7,8.2l2.2,3.1l0.5,0.2l1.7,3.4l3.6,2.9c0.5,0.7,1.7,0.7,2.9,0.7l1.2,0.2l2.2-1c1.7-0.7,3.4-1.4,5.3-1.7l1.4-0.7
	l3.4-0.2c1.2,0,1.7,0.2,2.4,1l4.8-3.1h0.5l0.5,0.2l0.2-0.2l0.5,0.5c1.9,2.2,2.9,4.1,2.9,5l2.2,3.6l1.7,0.5h0.2h0.2l-0.5-0.5
	c-0.2-1.2-0.2-1.9,0-2.4c0.5-0.7,1.4-1.2,2.9-1.2l8.9-0.2l0.2-0.2h0.5v0.5h0.5l2.6,5.1l-0.2,2.6h-0.2l3.4,0.7h0.2
	c-0.2-0.7-0.2-1.2,0.2-1.7l1.2-0.2l7.9,5.5c0.7,0.7,1.2,1.7,1.4,2.9l0.2,3.4l2.7,0.5l1.7-2.9c-0.7-1.5-1.2-2.9-1-3.9
	c0.2-1,0.5-1.7,1.4-2.2l0.7-0.7c0-0.5,0.2-0.7,0.7-1l2.2,0.2c1.2,0.7,2.2,3.1,2.7,7.2v0.5l0.5,0.2c0.2,1,1.7,1.7,3.9,2.4h0.2
	l0.2,0.2l7.7,7.9l0,0l3.6-1.2l-0.5-1.2c-1-1.2-1.2-2.4-1.2-3.1c0-1.7,1.2-3.4,3.6-5.1l4.1-3.6l4.8,3.4h1l1-5.3v-1l1-0.2l3.9,0.5
	c0.7,0.7,1.2,1.4,1.2,2.6c0,1-0.7,2.2-1.4,3.1l0.7,0.5c2.4,1.2,4.3,2.2,5.8,2.4h0.2l0,0l3.1,1.7l2.4-0.2l-3.6-17.6
	c-2.4-1.4-4.6-4.3-6.7-7.7c-1.7-2.9-0.7-7,3.1-11.8c2.2-2.4,4.8-4.8,7.7-7.2l0,0l0.2-0.5h3.4l0.2,0.5l2.9,1.2h6
	c2.4-1.2,4.6-4.8,7-10.6C990.2,147.1,990.2,140.2,989.3,129.3z"/>
<g>
	<path class="st0" d="M850.4,368.8L850,369c0,1.2-0.7,1.9-1.9,1.9l-9.4-1c-6.5-1.2-10.8-2.2-13-3.4l-13.2,12.5l0.5,5.3v0.5l-1.2,0.2
		c-10.3,1.4-15.9,0.5-16.6-2.9l-1.2-14.9l-12-0.7l-5.1,10.6l-0.5-4.6c-0.2-3.6-1-5.8-1.7-6.3l-5.3,2.6l-2.4,3.1l-0.2,0.2h-0.2
		l-4.8,1.7c-5.3,4.3-9.9,8.9-14,13.7l-12.8,17.3l2.6,6v1l0,0l-0.2,0.2c-1,1.4-0.5,3.6,1,6c1.7,3.1,2.9,6.5,2.9,10.4v0.7l-10.3,6v2.4
		l4.8,2.2c0.5,0.2,0.7,0.7,0.7,1v0.5c-0.2,1.2,1.7,2.9,5.3,4.6l8.9,2.4l2.7-1.7l2.9-4.1l2.4-7l7,2.6l1,0.7v0.5l0,0v0.2
		c-1.2,2.9-0.5,4.8,1.7,6l7.7,0.2c2.6-0.5,4.8-1.4,6.3-2.6c1-1.2,2.4-1.4,4.6-1.2c2.6,0.5,5.1,1.4,6.7,3.6l1.7-4.1l0.5-0.7h0.2
		c1.2-0.7,1.9-1.9,2.9-3.6c0.7-1.7,1.9-3.4,3.8-4.6l3.4-1.9l0.2-0.2l0.2,0.2h0.2l1.9,0.5l0,0l0.5,0.2l2.6-12v-0.2l3.8-0.7
		c3.8-2.6,5.8-4.8,5.5-6.7l-0.7-3.6c-1-2.4-1-4.1-0.5-4.8c0.7-0.7,1.2-1,1.9-1c1.7,0,3.6,0.5,5.5,1.4l0.5-3.9v-0.5l0.2-0.2l4.1-1.9
		l0.5-2.2h-2.4l-0.5-0.2l0.2-1.2v-0.7l0.2-0.5h0.7h0.5c1.7,0,3.6-1,5.8-2.9l15.2-10.8h0.5l4.8,2.2l1.9-0.2l-1.2-5v-0.5l0.2-0.2
		l0.2-0.2l2.6-4.3l-0.7-0.5l-1.7,0.5v0.2h-0.2l-4.8,0.7h-1.2h-0.2v-0.2l-0.2-0.7l-1-1.7H850.4z"/>
</g>
<path class="st0" d="M837,459c-2.7-2.2-4.8-6-7-12c-7,0-11.1-1.2-13-3.6c-1.4-2.2-4.3-3.6-8.4-4.8l-1.2-0.2l1.2-4.1l-0.7-0.5
	l-1.2-0.2c-2.9,1.4-4.8,2.9-5.5,4.8c-1,1.9-2.2,3.6-3.6,4.8c-1.2,3.8-2.4,5.8-3.6,5.8c-0.7,0.2-1.2-0.2-1.7-1l-1.9-1.7
	c-1.4-0.7-2.9-1.4-4.1-1.4l-2.4,0.5c-1.7,1.7-4.1,2.9-7.7,3.4l-9.1-0.5c-2.9-1.4-4.1-4.3-3.4-7.9l-3.4-1.2l-1.7,4.8l0,0v0.2
	l-0.2,0.2l-0.7,1l2.2,0.5h0.5l0.2,0.2v0.2c4.1,5.5,7.2,9.1,8.9,10.1c1,0.5,3.9,1.4,8.9,2.9l8.7,3.1c2.6,1.2,5.3,6.5,8.2,15.9
	c3.9,2.6,6.3,3.8,7.9,3.6c1.7-0.7,4.6-2.4,8.7-5.1l0.2-0.2l0.2-0.2l0.5,0.2l4.3,1h0.5v0.7l-0.2,0.7c-1.4,5.8-2.6,9.2-3.6,10.1
	l-5.8,0.2v0.2c0,2.4-1.7,6-4.8,10.6c-1,1.4-1.2,2.6-1.2,3.4l5.5,3.8c1.4,1.7,2.4,2.2,3.6,2.2h1.2l1.2,4.1l2.6,1l1.4-1.4
	c0.7-0.7,1.7-1.2,2.4-1c2.4,0,4.3,1.4,6.7,4.6l0,0l2.2,2.9l0.2-0.2c1.4-1,4.1-0.7,7.9,0.5l6.2,1.4l5.8-1.9l2.4-1.2l1.7-1.2l-1.4-1.7
	c-0.5-1,0-2.2,1.2-3.4c1.4-1.2,2.4-2.4,2.4-3.8v-2.9c-0.5-1.4-0.2-2.4,0.2-2.9c0.5-1,2.2-1.5,4.1-1.9c3.1-0.5,7,1,11.5,4.8l-1.7-4.8
	l-2.6-3.6l-0.5-4.3l-4.1-0.7H862v-0.2l0,0l0,0l-10.8-6.3l-5.3-1v-1.2l-0.2-5.5C842,467.4,839.1,461.2,837,459z"/>
<path class="st0" d="M795.3,311l-1.9-1l0,0h-0.2l-1.4-1.4l-6.7-1.9h-1.7l-1.2,0.5l-2.7-5.1l0.2-0.2l1.9-2.4v-2.9l0.2-0.5l1.2-1.9
	l-1-0.5l-3.6-0.7l0,0l-6.3-1h-0.5l-3.6-3.6v-0.2l-1.2-2.4l-0.2-0.7l1.9-5v-3.6l-0.2-1l-1.9,1.9l-0.2,0.2l-0.5,0.7l-0.5-0.7l-0.7-0.2
	l-3.6-2.9l-0.5-0.5v-0.5l-0.7-5.3l-1.7-2.7l-3.6,0.2l-2.2,3.8l-0.2,0.5l-0.2,0.2l-5.8-1.2l-1,5.3v5.3l-0.2,0.2l-3.1,4.8v0.5
	l-0.5,0.2H741l-3.6,0.2l-3.6,2.9l-0.5,0.5l0,0h-0.5l-0.2-0.2l-6.7-2.2l-1,2.4v0.2l-2.9,4.8c-0.5,1-1.2,1.4-1.9,1.7l-2.9-0.5
	l-3.9-1.7l-0.7-0.5l-0.2-0.2v-0.2l-0.7-5.8l-1.2-4.3l-0.7-1.2l-1.7,3.4l0,0l0,0l-2.9,3.9l-2.4,5.5v0.2l0,0v0.2h-0.2l-2.2,3.1
	c0,1-0.7,2.4-2.2,4.6l1.4,5.5l7.2,7.9l0,0l2.4,5v0.5l-0.2,0.5h-0.2l-1.9,2.4l-0.5,0.5l-4.8,1l0.5,3.8l3.6,1.9l5.3,1.2l1.4,4.8l0,0
	l0,0v0.2v0.2l-1.2,8.2l0,0v0.2l-1.9,3.6v0.7h-0.5l-6,1v2.4l-1.7,5.3l-0.7,6l1.2,3.4l7.5,4.6l0.2,0.2l3.1,5.3v0.2l0.2,0.2l-0.2,0.2
	l-3.8,8.4l-1,2.4l0,0l-2.4,5.5l-1,4.3l-0.2,0.5v0.2c-1.2,1-1.9,1.9-2.4,3.4c-0.2,0.5-0.2,1,0.2,1.4l0.2,0.2l2.4,2.6l0,0l0,0l1.2,1.9
	l0.5-0.2l0,0l0.2,0.7v0.2v0.7l0,0v0.2l0,0l0,0l0.5,1.4l2.2,0.7l8.7,1.9c2.9,0,5.5-0.7,8.4-1.9c2.9-1.2,5.5-1.4,8.4-1l0.5-1.7
	l-2.9-6.5l-0.2-0.5h0.2l13.7-19l14.7-14.2h0.2l4.6-1.7l2.4-2.7v-0.2c1.9-1.4,3.6-2.4,5.5-3.1l-1.4-1.2l-3.1-3.1v-0.2h-0.2l-2.4-2.9
	l-0.2-0.5v-0.5l1.2-1.4l-3.1,0.7l-6.7-1.7c-2.6-1.2-4.3-2.6-4.8-4.3c-1.4-4.3-1.9-8.2-1.7-11.5c-1,1.2-2.2,1.4-3.4,1.4l-5.1-1.2
	l-3.4-2.4l-4.1-1h-1.9c-1.2,0-2.6-0.5-3.6-1.4c-1.4-1-2.2-1.9-2.4-2.9c-0.5-1.9,0-3.1,1.7-4.3c1.7-1.2,3.6-3.1,5.3-5.5
	c-1.7-2.2-2.4-4.3-1.7-6.5l0.2-0.2c0.2-1.2,2.2-2.2,5.8-3.4c0.2-1.2,0.7-1.9,1.2-2.2l3.6,0.2l-0.5-0.5c-2.4-1.4-3.1-3.1-1.9-5.1
	l1.9-1.4c2.2-0.7,4.8-0.5,7.5,1l5.5,3.8h5.1l1.7,1.4l0.5,1.9c0,1.2-0.7,1.9-1.7,1.9c-1.2,0-1.7,1.2-1.9,2.6l2.4,5.8
	c1.5-2.2,2.9-3.4,4.3-3.6c0.7,0,1.7,0.5,2.4,1.4c0.7,1.2,1.4,3.4,1.9,5.5c0.2,2.6,1,4.8,1.7,6l1.9,2.6c2.9,3.6,4.6,6.3,5.1,8.4
	l9.4-1.2l4.1-2.2l3.8-4.8l1.7-4.6v-0.2v-0.2l1.2-4.8v-0.2l0.2-0.5h0.2l3.6-2.4l0.7-0.5l-0.2-0.2l-6-1.9H797v-0.2l-1.2-3.6L795.3,311
	z"/>
<path class="st0" d="M883.2,645.7c-7.7,5.5-13.2,12.5-16.8,20.9c-3.1,7.2-5.5,10.8-7.2,11.8l1.7,13.2v0.2l0,0l-1.2,9.1
	c-0.5,2.9,0,4.8,0.7,5.3l9.9,6.5l0,0h0.2l0.2,0.7l0,0c0.5,2.2,1.9,4.1,3.8,6.5c1,1.4,2.2,2.2,3.1,2.6l1.5-15.9v-0.5l7-16.8l2.4-20
	v-0.2l0.2-0.2l2.2-5.3l-1.7-4.6v-0.2h-0.2l-0.5-6.3l0.2-0.2l0.2-0.3l1.2-1.4l0.7-1.7L883.2,645.7z"/>
<path class="st0" d="M646.2,786.5l-0.7,1.2v0.2l-0.2,0.5l-9.9,2.4l0.5,1.2l3.1,3.6c-0.2,0-0.7,0.2-1,0.2l-4.6,2.4l-7.2,5.5
	c-2.4,2.9-1.9,8.2,1.7,16.1l7.2,0.7h0.2v0.2l7.2,3.4l7.7-1.2c3.1-0.7,6.7-3.6,11.3-9.1h0.2l0.5-0.5l3.4-1l-1-10.1v-0.5l4.3-6.3v-0.2
	h0.2l3.4-2.6c0.5-2.9,0.2-5.5-1-7.7c-1-1.9-2.2-2.6-3.4-2.6l0.5,3.6l-6.5-1.2l-2.9,1.7h-0.2l0,0H646.2z"/>
<g>
	<defs>
		<path id="SVGID_1_" d="M592.7,387.4l-1.4-0.2l-2.4,14.7l4.1,4.8l3.9,1.7l0,0h0.2l0.2,0.2l5,4.1l7,1.7h0.2l3.6,2.4h0.2l0,0v0.5
			l2.6,3.8l0.5,0.5l-0.2,0.5l-2.4,3.9c-0.5,0.5-0.5,1.7-0.5,3.6h0.2v4.6l-0.2,0.2l0,0l-2.2,7.2l-0.2,1.2h-0.5l-0.7-0.2l-3.1-0.7
			l-4.1,0.2l-3.6,1.2l-4.1,3.4l-1,1l5.3,2.6l-0.5,1c-0.2,1.2-1.4,2.4-3.4,3.1l-3.4,0.2l-5.5-2.2l0,0l0,0l-5.1-2.9h-2.2l-6,8.7
			L572,461v5.1l2.4,4.1v0.2l0,0l0,0l1.4,3.8v0.5l0.2,5.5v0.7l0.2,0.5l-3.8,0.7h-7.2l-3.4,2.2l-1.4,2.4l0.2,0.2l1.4,7.2h0.2v2.9
			l1.7,3.4l5.1,3.4l7.5-1.7l3.6-2.4l0.5-0.2h3.4l1.9,4.6c1.2,1.2,2.2,2.4,2.6,3.8l1.7-0.2h0.5h0.5l0.2-0.5l3.4-2.6l3.1,5.5l3.4,2.2
			h4.8l3.6-0.5h0.7l8.7,1.2h0.2v0.2l3.6,2.2l0,0l0,0v0.2l3.1,2.4v0.2l2.2,2.4l2.4,1l3.8-0.5v-5.1l-1.9-3.4h-0.2v-0.2l-1.4-6.3
			l3.4-3.4l0.2-0.2h0.2l2.9-0.5h3.1l1-1.2l-1.9-2.6l-7-4.6l-1.7-2.6l-0.2-0.2l-0.2-0.2l0.2-0.5l1.9-3.6l0.5,0.5l4.8,1.2l12.8-0.5
			l0.2,0.2h0.2l3.6,1.2l2.4-2.2l-1.2-7.5l-4.6-2.9c-3.9-2.2-5.1-7.5-4.3-16.1l-3.8-1.9l-0.5-0.2h-0.5v-0.5v-0.2l-0.7-6.3l5.3-24.6
			c-2.2-7.2-3.4-12-3.4-14.4l-0.5-7.2l0.5-7.9v-0.5l0.5-0.5l0,0l4.8-3.6v-3.8c0-1-0.5-2.4-1.7-4.3l-3.1-3.4h-0.5v-0.7l-0.5-5.8v-0.2
			l-0.2-0.2l0.5-0.2v-0.2l6.3-7.9v-3.4l-1.9-3.6v-0.2l-0.2-0.5l3.1-3.9v-0.2h0.2l3.4-2.6l-0.5-3.1h-1.7l-2.6-0.5l-1.4,5.8l-0.7-0.2
			l-6.2-2.4l-3.8-0.7l1.4,6l-5.3,1.7l-7.7,4.1l-2.4,3.1l0,0v0.2h-0.2l-4.1,3.6l-0.7,5.8v0.5l-2.2,8.2h0.2l-1,3.8v0.2l0,0l-0.2,0.2
			l-2.6,3.6h-0.2v0.2l-0.2,0.2h-0.2l-5.8,0.7l0,0v0.2l-0.2-0.2l0,0l-8.7-2.9l-0.2-0.2L592.7,387.4z"/>
	</defs>
	<use xlink:href="#SVGID_1_"  style="overflow:visible;fill:#D9E2E8;"/>
	<clipPath id="SVGID_2_">
		<use xlink:href="#SVGID_1_"  style="overflow:visible;"/>
	</clipPath>
	<g class="st1">
		<g>
			<line class="st2" x1="609" y1="674.1" x2="962.1" y2="321"/>
			<line class="st2" x1="622.7" y1="674.1" x2="975.8" y2="321"/>
			<line class="st2" x1="636.5" y1="674.1" x2="989.6" y2="321"/>
			<line class="st2" x1="650.3" y1="674.1" x2="1003.3" y2="321"/>
			<line class="st2" x1="664" y1="674.1" x2="1017.1" y2="321"/>
			<line class="st2" x1="677.8" y1="674.1" x2="1030.9" y2="321"/>
			<line class="st2" x1="691.5" y1="674.1" x2="1044.6" y2="321"/>
			<line class="st2" x1="705.3" y1="674.1" x2="1058.4" y2="321"/>
			<line class="st2" x1="732.8" y1="674.1" x2="1085.9" y2="321"/>
			<line class="st2" x1="719.1" y1="674.1" x2="1072.1" y2="321"/>
			<line class="st2" x1="746.6" y1="674.1" x2="1099.7" y2="321"/>
			<line class="st2" x1="760.3" y1="674.1" x2="1113.4" y2="321"/>
			<line class="st2" x1="787.9" y1="674.1" x2="1140.9" y2="321"/>
			<line class="st2" x1="774.1" y1="674.1" x2="1127.2" y2="321"/>
			<line class="st2" x1="801.6" y1="674.1" x2="1154.7" y2="321"/>
			<line class="st2" x1="815.4" y1="674.1" x2="1168.5" y2="321"/>
			<line class="st2" x1="842.9" y1="674.1" x2="1196" y2="321"/>
			<line class="st2" x1="829.2" y1="674.1" x2="1182.2" y2="321"/>
			<line class="st2" x1="856.7" y1="674.1" x2="1209.8" y2="321"/>
			<line class="st2" x1="870.4" y1="674.1" x2="1223.5" y2="321"/>
			<line class="st2" x1="884.2" y1="674.1" x2="1237.3" y2="321"/>
			<line class="st2" x1="898" y1="674.1" x2="1251" y2="321"/>
			<line class="st2" x1="911.7" y1="674.1" x2="1264.8" y2="321"/>
			<line class="st2" x1="925.5" y1="674.1" x2="1278.6" y2="321"/>
			<line class="st2" x1="939.2" y1="674.1" x2="1292.3" y2="321"/>
			<line class="st2" x1="966.8" y1="674.1" x2="1319.8" y2="321"/>
			<line class="st2" x1="953" y1="674.1" x2="1306.1" y2="321"/>
			<line class="st2" x1="980.5" y1="674.1" x2="1333.6" y2="321"/>
			<line class="st2" x1="994.3" y1="674.1" x2="1347.4" y2="321"/>
			<line class="st2" x1="1021.8" y1="674.1" x2="1374.9" y2="321"/>
			<line class="st2" x1="1008" y1="674.1" x2="1361.1" y2="321"/>
			<line class="st2" x1="1035.6" y1="674.1" x2="1388.6" y2="321"/>
			<line class="st2" x1="1049.3" y1="674.1" x2="1402.4" y2="321"/>
			<line class="st2" x1="1063.1" y1="674.1" x2="1416.2" y2="321"/>
		</g>
	</g>
</g>
</svg>
